<?xml version="1.0" encoding="UTF-8"?>
<svg width="242px" height="340px" viewBox="0 0 242 340" version="1.1" xmlns="http://www.w3.org/2000/svg" xmlns:xlink="http://www.w3.org/1999/xlink">
    <title>clubs/empty</title>
    <defs>
        <path d="M10,0 L232,0 C237.522847,-1.01453063e-15 242,4.4771525 242,10 L242,330 C242,335.522847 237.522847,340 232,340 L10,340 C4.4771525,340 6.76353751e-16,335.522847 0,330 L0,10 C-6.76353751e-16,4.4771525 4.4771525,1.01453063e-15 10,0 Z" id="path-1"></path>
        <filter x="-5.6%" y="-4.0%" width="111.2%" height="107.9%" filterUnits="objectBoundingBox" id="filter-2">
            <feGaussianBlur stdDeviation="13.5" in="SourceAlpha" result="shadowBlurInner1"></feGaussianBlur>
            <feOffset dx="0" dy="0" in="shadowBlurInner1" result="shadowOffsetInner1"></feOffset>
            <feComposite in="shadowOffsetInner1" in2="SourceAlpha" operator="arithmetic" k2="-1" k3="1" result="shadowInnerInner1"></feComposite>
            <feColorMatrix values="0 0 0 0 0   0 0 0 0 0   0 0 0 0 0  0 0 0 0.136746066 0" type="matrix" in="shadowInnerInner1"></feColorMatrix>
        </filter>
    </defs>
    <g id="Page-1" stroke="none" stroke-width="1" fill="none" fill-rule="evenodd">
        <g id="Empty-Slots" transform="translate(-1445.000000, -40.000000)">
            <g id="clubs/empty" transform="translate(1445.000000, 40.000000)">
                <g id="BG">
                    <use fill-opacity="0.1" fill="#FFFFFF" fill-rule="evenodd" xlink:href="#path-1"></use>
                    <use fill="black" fill-opacity="1" filter="url(#filter-2)" xlink:href="#path-1"></use>
                    <path stroke-opacity="0.0588122815" stroke="#FFFFFF" stroke-width="2" d="M232,1 L10,1 C7.51471863,1 5.26471863,2.00735931 3.63603897,3.63603897 C2.00735931,5.26471863 1,7.51471863 1,10 L1,330 C1,332.485281 2.00735931,334.735281 3.63603897,336.363961 C5.26471863,337.992641 7.51471863,339 10,339 L232,339 C234.485281,339 236.735281,337.992641 238.363961,336.363961 C239.992641,334.735281 241,332.485281 241,330 L241,10 C241,7.51471863 239.992641,5.26471863 238.363961,3.63603897 C236.735281,2.00735931 234.485281,1 232,1 Z" stroke-linejoin="square"></path>
                </g>
                <path d="M140.832078,158.001129 C138.49568,158.001129 136.269273,158.458238 134.238923,159.28298 C136.145326,156.584739 137.264178,153.315921 137.264178,149.790669 C137.264178,140.540528 129.577426,133.041667 120.095924,133.041667 C110.614422,133.041667 102.928002,140.540528 102.928002,149.790669 C102.928002,153.147018 103.943841,156.269949 105.686088,158.890385 C103.95381,158.316891 102.098914,158.001129 100.167922,158.001129 C90.6860877,158.001129 83,165.49999 83,174.750131 C83,184.000272 90.6860877,191.499133 100.167922,191.499133 C102.30926,191.499133 104.357554,191.113346 106.248006,190.41439 C106.247674,190.41828 114.237816,188.313309 119.490142,178.986659 L119.490142,184.602295 C119.490142,184.602295 116.797187,202.30377 97.8115862,204.241459 L94.7816792,204.241459 L94.7816792,207 L146.487483,207 L146.487483,204.241459 L143.457909,204.241459 C124.472308,202.30377 121.779021,184.602295 121.779021,184.602295 L121.779021,179.364665 C122.757311,181.466395 128.16615,191.742601 140.321998,191.487462 C140.491803,191.491353 140.660944,191.499133 140.832078,191.499133 C150.313912,191.499133 158,184.000272 158,174.750131 C158,165.49999 150.313912,158.001129 140.832078,158.001129 Z" id="Trefle" fill="#FFFFFF" opacity="0.2"></path>
            </g>
        </g>
    </g>
</svg>