<?xml version="1.0" encoding="UTF-8"?>
<svg width="242px" height="340px" viewBox="0 0 242 340" version="1.1" xmlns="http://www.w3.org/2000/svg" xmlns:xlink="http://www.w3.org/1999/xlink">
    <title>clubs/4</title>
    <g id="Page-1" stroke="none" stroke-width="1" fill="none" fill-rule="evenodd">
        <g id="Card-deck" transform="translate(-570.000000, -443.000000)">
            <g id="clubs/4" transform="translate(570.000000, 443.000000)">
                <polygon id="BG" fill="#FFFFFF" points="0 0 242 0 242 340 0 340"></polygon>
                <g id="Symbol-/-Trefle" transform="translate(148.000000, 256.000000)" fill="#1A1919">
                    <path d="M26.9883031,12.1338602 C25.897984,12.1338602 24.8589942,12.3471779 23.9114976,12.7320574 C24.801152,11.4728781 25.3232831,9.94742992 25.3232831,8.30231206 C25.3232831,3.98557968 21.736132,0.486111111 17.3114311,0.486111111 C12.8867302,0.486111111 9.29973416,3.98557968 9.29973416,8.30231206 C9.29973416,9.86860829 9.77379265,11.3259764 10.5868409,12.5488463 C9.77844484,12.2812158 8.91282676,12.1338602 8.01169694,12.1338602 C3.58684094,12.1338602 0,15.6333288 0,19.9500612 C0,24.2667936 3.58684094,27.7662621 8.01169694,27.7662621 C9.01098804,27.7662621 9.96685866,27.5862281 10.8490696,27.2600488 C10.8489145,27.2618642 14.5776473,26.279544 17.0287328,21.9271074 L17.0287328,24.5477375 C17.0287328,24.5477375 15.7720204,32.8084258 6.91207355,33.7126809 L5.49811697,33.7126809 L5.49811697,35 L29.6274922,35 L29.6274922,33.7126809 L28.2136907,33.7126809 C19.3537439,32.8084258 18.0968764,24.5477375 18.0968764,24.5477375 L18.0968764,22.1035105 C18.5534116,23.0843178 21.0775366,27.8798803 26.7502658,27.7608157 C26.8295082,27.7626312 26.9084404,27.7662621 26.9883031,27.7662621 C31.4131591,27.7662621 35,24.2667936 35,19.9500612 C35,15.6333288 31.4131591,12.1338602 26.9883031,12.1338602 Z" id="Trefle"></path>
                </g>
                <g id="Symbol-/-Trefle" transform="translate(60.000000, 256.000000)" fill="#1A1919">
                    <path d="M26.9883031,12.1338602 C25.897984,12.1338602 24.8589942,12.3471779 23.9114976,12.7320574 C24.801152,11.4728781 25.3232831,9.94742992 25.3232831,8.30231206 C25.3232831,3.98557968 21.736132,0.486111111 17.3114311,0.486111111 C12.8867302,0.486111111 9.29973416,3.98557968 9.29973416,8.30231206 C9.29973416,9.86860829 9.77379265,11.3259764 10.5868409,12.5488463 C9.77844484,12.2812158 8.91282676,12.1338602 8.01169694,12.1338602 C3.58684094,12.1338602 0,15.6333288 0,19.9500612 C0,24.2667936 3.58684094,27.7662621 8.01169694,27.7662621 C9.01098804,27.7662621 9.96685866,27.5862281 10.8490696,27.2600488 C10.8489145,27.2618642 14.5776473,26.279544 17.0287328,21.9271074 L17.0287328,24.5477375 C17.0287328,24.5477375 15.7720204,32.8084258 6.91207355,33.7126809 L5.49811697,33.7126809 L5.49811697,35 L29.6274922,35 L29.6274922,33.7126809 L28.2136907,33.7126809 C19.3537439,32.8084258 18.0968764,24.5477375 18.0968764,24.5477375 L18.0968764,22.1035105 C18.5534116,23.0843178 21.0775366,27.8798803 26.7502658,27.7608157 C26.8295082,27.7626312 26.9084404,27.7662621 26.9883031,27.7662621 C31.4131591,27.7662621 35,24.2667936 35,19.9500612 C35,15.6333288 31.4131591,12.1338602 26.9883031,12.1338602 Z" id="Trefle"></path>
                </g>
                <g id="Symbol-/-Trefle" transform="translate(148.000000, 56.000000)" fill="#1A1919">
                    <path d="M26.9883031,12.1338602 C25.897984,12.1338602 24.8589942,12.3471779 23.9114976,12.7320574 C24.801152,11.4728781 25.3232831,9.94742992 25.3232831,8.30231206 C25.3232831,3.98557968 21.736132,0.486111111 17.3114311,0.486111111 C12.8867302,0.486111111 9.29973416,3.98557968 9.29973416,8.30231206 C9.29973416,9.86860829 9.77379265,11.3259764 10.5868409,12.5488463 C9.77844484,12.2812158 8.91282676,12.1338602 8.01169694,12.1338602 C3.58684094,12.1338602 0,15.6333288 0,19.9500612 C0,24.2667936 3.58684094,27.7662621 8.01169694,27.7662621 C9.01098804,27.7662621 9.96685866,27.5862281 10.8490696,27.2600488 C10.8489145,27.2618642 14.5776473,26.279544 17.0287328,21.9271074 L17.0287328,24.5477375 C17.0287328,24.5477375 15.7720204,32.8084258 6.91207355,33.7126809 L5.49811697,33.7126809 L5.49811697,35 L29.6274922,35 L29.6274922,33.7126809 L28.2136907,33.7126809 C19.3537439,32.8084258 18.0968764,24.5477375 18.0968764,24.5477375 L18.0968764,22.1035105 C18.5534116,23.0843178 21.0775366,27.8798803 26.7502658,27.7608157 C26.8295082,27.7626312 26.9084404,27.7662621 26.9883031,27.7662621 C31.4131591,27.7662621 35,24.2667936 35,19.9500612 C35,15.6333288 31.4131591,12.1338602 26.9883031,12.1338602 Z" id="Trefle"></path>
                </g>
                <g id="Symbol-/-Trefle" transform="translate(62.000000, 54.000000)" fill="#1A1919">
                    <path d="M26.9883031,12.1338602 C25.897984,12.1338602 24.8589942,12.3471779 23.9114976,12.7320574 C24.801152,11.4728781 25.3232831,9.94742992 25.3232831,8.30231206 C25.3232831,3.98557968 21.736132,0.486111111 17.3114311,0.486111111 C12.8867302,0.486111111 9.29973416,3.98557968 9.29973416,8.30231206 C9.29973416,9.86860829 9.77379265,11.3259764 10.5868409,12.5488463 C9.77844484,12.2812158 8.91282676,12.1338602 8.01169694,12.1338602 C3.58684094,12.1338602 0,15.6333288 0,19.9500612 C0,24.2667936 3.58684094,27.7662621 8.01169694,27.7662621 C9.01098804,27.7662621 9.96685866,27.5862281 10.8490696,27.2600488 C10.8489145,27.2618642 14.5776473,26.279544 17.0287328,21.9271074 L17.0287328,24.5477375 C17.0287328,24.5477375 15.7720204,32.8084258 6.91207355,33.7126809 L5.49811697,33.7126809 L5.49811697,35 L29.6274922,35 L29.6274922,33.7126809 L28.2136907,33.7126809 C19.3537439,32.8084258 18.0968764,24.5477375 18.0968764,24.5477375 L18.0968764,22.1035105 C18.5534116,23.0843178 21.0775366,27.8798803 26.7502658,27.7608157 C26.8295082,27.7626312 26.9084404,27.7662621 26.9883031,27.7662621 C31.4131591,27.7662621 35,24.2667936 35,19.9500612 C35,15.6333288 31.4131591,12.1338602 26.9883031,12.1338602 Z" id="Trefle"></path>
                </g>
                <g id="Small-Carreau" transform="translate(14.000000, 62.000000)" fill="#1A1919">
                    <g id="Symbol-/-Trefle">
                        <path d="M17.1354305,7.66532449 C16.4431645,7.66532449 15.7834884,7.80008367 15.1819032,8.04322364 C15.7467632,7.24776218 16.078275,6.28409069 16.078275,5.24482026 C16.078275,2.51781057 13.8007188,0.307091011 10.9913848,0.307091011 C8.1820509,0.307091011 5.90459312,2.51781057 5.90459312,5.24482026 C5.90459312,6.2342967 6.20558263,7.15495994 6.72180377,7.92748366 C6.20853641,7.75841346 5.65893763,7.66532449 5.08679171,7.66532449 C2.27735933,7.66532449 0,9.87604405 0,12.6030537 C0,15.3300634 2.27735933,17.540783 5.08679171,17.540783 C5.72126225,17.540783 6.32816423,17.4270501 6.88829813,17.2209928 C6.88819968,17.2221396 9.25564909,16.6015784 10.8118939,13.8520133 L10.8118939,15.5075441 C10.8118939,15.5075441 10.0139812,20.7260695 4.38861813,21.2973146 L3.49086792,21.2973146 L3.49086792,22.1105528 L18.8111062,22.1105528 L18.8111062,21.2973146 L17.9134544,21.2973146 C12.2880914,20.7260695 11.4900802,15.5075441 11.4900802,15.5075441 L11.4900802,13.9634524 C11.7799439,14.5830579 13.3825629,17.612559 16.9842958,17.5373423 C17.0346084,17.5384892 17.0847241,17.540783 17.1354305,17.540783 C19.9448629,17.540783 22.2222222,15.3300634 22.2222222,12.6030537 C22.2222222,9.87604405 19.9448629,7.66532449 17.1354305,7.66532449 Z" id="Trefle"></path>
                    </g>
                    <g id="Symbol-/-Trefle" transform="translate(202.888889, 206.944724) rotate(180.000000) translate(-202.888889, -206.944724) translate(191.777778, 195.889447)">
                        <path d="M17.1354305,7.66532449 C16.4431645,7.66532449 15.7834884,7.80008367 15.1819032,8.04322364 C15.7467632,7.24776218 16.078275,6.28409069 16.078275,5.24482026 C16.078275,2.51781057 13.8007188,0.307091011 10.9913848,0.307091011 C8.1820509,0.307091011 5.90459312,2.51781057 5.90459312,5.24482026 C5.90459312,6.2342967 6.20558263,7.15495994 6.72180377,7.92748366 C6.20853641,7.75841346 5.65893763,7.66532449 5.08679171,7.66532449 C2.27735933,7.66532449 0,9.87604405 0,12.6030537 C0,15.3300634 2.27735933,17.540783 5.08679171,17.540783 C5.72126225,17.540783 6.32816423,17.4270501 6.88829813,17.2209928 C6.88819968,17.2221396 9.25564909,16.6015784 10.8118939,13.8520133 L10.8118939,15.5075441 C10.8118939,15.5075441 10.0139812,20.7260695 4.38861813,21.2973146 L3.49086792,21.2973146 L3.49086792,22.1105528 L18.8111062,22.1105528 L18.8111062,21.2973146 L17.9134544,21.2973146 C12.2880914,20.7260695 11.4900802,15.5075441 11.4900802,15.5075441 L11.4900802,13.9634524 C11.7799439,14.5830579 13.3825629,17.612559 16.9842958,17.5373423 C17.0346084,17.5384892 17.0847241,17.540783 17.1354305,17.540783 C19.9448629,17.540783 22.2222222,15.3300634 22.2222222,12.6030537 C22.2222222,9.87604405 19.9448629,7.66532449 17.1354305,7.66532449 Z" id="Trefle"></path>
                    </g>
                </g>
                <g id="Letter-/-Noir" transform="translate(10.000000, 8.000000)" fill="#000000" font-family="Helvetica" font-size="40" font-weight="normal">
                    <text id="A">
                        <tspan x="0" y="29">4</tspan>
                    </text>
                </g>
                <g id="Letter-/-Noir" transform="translate(215.000000, 310.000000) rotate(180.000000) translate(-215.000000, -310.000000) translate(202.000000, 286.000000)" fill="#000000" font-family="Helvetica" font-size="40" font-weight="normal">
                    <text id="A">
                        <tspan x="0" y="29">4</tspan>
                    </text>
                </g>
            </g>
        </g>
    </g>
</svg>