<?xml version="1.0" encoding="UTF-8"?>
<svg width="242px" height="340px" viewBox="0 0 242 340" version="1.1" xmlns="http://www.w3.org/2000/svg" xmlns:xlink="http://www.w3.org/1999/xlink">
    <title>spades/10</title>
    <g id="Page-1" stroke="none" stroke-width="1" fill="none" fill-rule="evenodd">
        <g id="Card-deck" transform="translate(-2154.000000, -1211.000000)">
            <g id="spades/10" transform="translate(2154.000000, 1211.000000)">
                <polygon id="BG" fill="#FFFFFF" points="0 0 242 0 242 340 0 340"></polygon>
                <g id="Symbol-/-Pique" transform="translate(104.000000, 90.000000)" fill="#1A1919">
                    <path d="M25.4658169,27.5295779 C32.0243515,27.602795 36.0590567,23.4288836 33.8397977,19.0354546 C31.6205388,14.6418918 29.4081242,13.6533937 25.9243839,10.4681142 C22.4389325,7.28283472 17.3707405,1.7726773 17.3946955,0.472972973 C17.4203616,1.7726773 12.5609203,7.28283472 9.07546891,10.4681142 C5.5917286,13.6533937 3.38102502,14.6418918 1.16005502,19.0354546 C-1.05920391,23.4288836 2.97721229,27.602795 9.5340359,27.5295779 C14.0358634,27.4792495 16.0617713,24.9103591 16.8882185,23.3042672 L16.8882185,25.4062813 C16.8882185,25.4062813 15.450919,32.98847 5.30769083,33.8184871 L3.69072885,33.8184871 L3.69072885,35 L31.310835,35 L31.310835,33.8184871 L29.6921619,33.8184871 C19.5506448,32.98847 18.1116342,25.4062813 18.1116342,25.4062813 L18.1116342,23.5802704 C19.0852335,25.1881023 21.2138057,27.4820604 25.4658169,27.5295779" id="Pique"></path>
                </g>
                <g id="Symbol-/-Pique" transform="translate(104.000000, 220.000000)" fill="#1A1919">
                    <path d="M25.4658169,27.5295779 C32.0243515,27.602795 36.0590567,23.4288836 33.8397977,19.0354546 C31.6205388,14.6418918 29.4081242,13.6533937 25.9243839,10.4681142 C22.4389325,7.28283472 17.3707405,1.7726773 17.3946955,0.472972973 C17.4203616,1.7726773 12.5609203,7.28283472 9.07546891,10.4681142 C5.5917286,13.6533937 3.38102502,14.6418918 1.16005502,19.0354546 C-1.05920391,23.4288836 2.97721229,27.602795 9.5340359,27.5295779 C14.0358634,27.4792495 16.0617713,24.9103591 16.8882185,23.3042672 L16.8882185,25.4062813 C16.8882185,25.4062813 15.450919,32.98847 5.30769083,33.8184871 L3.69072885,33.8184871 L3.69072885,35 L31.310835,35 L31.310835,33.8184871 L29.6921619,33.8184871 C19.5506448,32.98847 18.1116342,25.4062813 18.1116342,25.4062813 L18.1116342,23.5802704 C19.0852335,25.1881023 21.2138057,27.4820604 25.4658169,27.5295779" id="Pique"></path>
                </g>
                <g id="Symbol-/-Pique" transform="translate(146.000000, 252.000000)" fill="#1A1919">
                    <path d="M25.4658169,27.5295779 C32.0243515,27.602795 36.0590567,23.4288836 33.8397977,19.0354546 C31.6205388,14.6418918 29.4081242,13.6533937 25.9243839,10.4681142 C22.4389325,7.28283472 17.3707405,1.7726773 17.3946955,0.472972973 C17.4203616,1.7726773 12.5609203,7.28283472 9.07546891,10.4681142 C5.5917286,13.6533937 3.38102502,14.6418918 1.16005502,19.0354546 C-1.05920391,23.4288836 2.97721229,27.602795 9.5340359,27.5295779 C14.0358634,27.4792495 16.0617713,24.9103591 16.8882185,23.3042672 L16.8882185,25.4062813 C16.8882185,25.4062813 15.450919,32.98847 5.30769083,33.8184871 L3.69072885,33.8184871 L3.69072885,35 L31.310835,35 L31.310835,33.8184871 L29.6921619,33.8184871 C19.5506448,32.98847 18.1116342,25.4062813 18.1116342,25.4062813 L18.1116342,23.5802704 C19.0852335,25.1881023 21.2138057,27.4820604 25.4658169,27.5295779" id="Pique"></path>
                </g>
                <g id="Symbol-/-Pique" transform="translate(58.000000, 252.000000)" fill="#1A1919">
                    <path d="M25.4658169,27.5295779 C32.0243515,27.602795 36.0590567,23.4288836 33.8397977,19.0354546 C31.6205388,14.6418918 29.4081242,13.6533937 25.9243839,10.4681142 C22.4389325,7.28283472 17.3707405,1.7726773 17.3946955,0.472972973 C17.4203616,1.7726773 12.5609203,7.28283472 9.07546891,10.4681142 C5.5917286,13.6533937 3.38102502,14.6418918 1.16005502,19.0354546 C-1.05920391,23.4288836 2.97721229,27.602795 9.5340359,27.5295779 C14.0358634,27.4792495 16.0617713,24.9103591 16.8882185,23.3042672 L16.8882185,25.4062813 C16.8882185,25.4062813 15.450919,32.98847 5.30769083,33.8184871 L3.69072885,33.8184871 L3.69072885,35 L31.310835,35 L31.310835,33.8184871 L29.6921619,33.8184871 C19.5506448,32.98847 18.1116342,25.4062813 18.1116342,25.4062813 L18.1116342,23.5802704 C19.0852335,25.1881023 21.2138057,27.4820604 25.4658169,27.5295779" id="Pique"></path>
                </g>
                <g id="Symbol-/-Pique" transform="translate(146.000000, 186.000000)" fill="#1A1919">
                    <path d="M25.4658169,27.5295779 C32.0243515,27.602795 36.0590567,23.4288836 33.8397977,19.0354546 C31.6205388,14.6418918 29.4081242,13.6533937 25.9243839,10.4681142 C22.4389325,7.28283472 17.3707405,1.7726773 17.3946955,0.472972973 C17.4203616,1.7726773 12.5609203,7.28283472 9.07546891,10.4681142 C5.5917286,13.6533937 3.38102502,14.6418918 1.16005502,19.0354546 C-1.05920391,23.4288836 2.97721229,27.602795 9.5340359,27.5295779 C14.0358634,27.4792495 16.0617713,24.9103591 16.8882185,23.3042672 L16.8882185,25.4062813 C16.8882185,25.4062813 15.450919,32.98847 5.30769083,33.8184871 L3.69072885,33.8184871 L3.69072885,35 L31.310835,35 L31.310835,33.8184871 L29.6921619,33.8184871 C19.5506448,32.98847 18.1116342,25.4062813 18.1116342,25.4062813 L18.1116342,23.5802704 C19.0852335,25.1881023 21.2138057,27.4820604 25.4658169,27.5295779" id="Pique"></path>
                </g>
                <g id="Symbol-/-Pique" transform="translate(58.000000, 186.000000)" fill="#1A1919">
                    <path d="M25.4658169,27.5295779 C32.0243515,27.602795 36.0590567,23.4288836 33.8397977,19.0354546 C31.6205388,14.6418918 29.4081242,13.6533937 25.9243839,10.4681142 C22.4389325,7.28283472 17.3707405,1.7726773 17.3946955,0.472972973 C17.4203616,1.7726773 12.5609203,7.28283472 9.07546891,10.4681142 C5.5917286,13.6533937 3.38102502,14.6418918 1.16005502,19.0354546 C-1.05920391,23.4288836 2.97721229,27.602795 9.5340359,27.5295779 C14.0358634,27.4792495 16.0617713,24.9103591 16.8882185,23.3042672 L16.8882185,25.4062813 C16.8882185,25.4062813 15.450919,32.98847 5.30769083,33.8184871 L3.69072885,33.8184871 L3.69072885,35 L31.310835,35 L31.310835,33.8184871 L29.6921619,33.8184871 C19.5506448,32.98847 18.1116342,25.4062813 18.1116342,25.4062813 L18.1116342,23.5802704 C19.0852335,25.1881023 21.2138057,27.4820604 25.4658169,27.5295779" id="Pique"></path>
                </g>
                <g id="Symbol-/-Pique" transform="translate(58.000000, 120.000000)" fill="#1A1919">
                    <path d="M25.4658169,27.5295779 C32.0243515,27.602795 36.0590567,23.4288836 33.8397977,19.0354546 C31.6205388,14.6418918 29.4081242,13.6533937 25.9243839,10.4681142 C22.4389325,7.28283472 17.3707405,1.7726773 17.3946955,0.472972973 C17.4203616,1.7726773 12.5609203,7.28283472 9.07546891,10.4681142 C5.5917286,13.6533937 3.38102502,14.6418918 1.16005502,19.0354546 C-1.05920391,23.4288836 2.97721229,27.602795 9.5340359,27.5295779 C14.0358634,27.4792495 16.0617713,24.9103591 16.8882185,23.3042672 L16.8882185,25.4062813 C16.8882185,25.4062813 15.450919,32.98847 5.30769083,33.8184871 L3.69072885,33.8184871 L3.69072885,35 L31.310835,35 L31.310835,33.8184871 L29.6921619,33.8184871 C19.5506448,32.98847 18.1116342,25.4062813 18.1116342,25.4062813 L18.1116342,23.5802704 C19.0852335,25.1881023 21.2138057,27.4820604 25.4658169,27.5295779" id="Pique"></path>
                </g>
                <g id="Symbol-/-Pique" transform="translate(146.000000, 120.000000)" fill="#1A1919">
                    <path d="M25.4658169,27.5295779 C32.0243515,27.602795 36.0590567,23.4288836 33.8397977,19.0354546 C31.6205388,14.6418918 29.4081242,13.6533937 25.9243839,10.4681142 C22.4389325,7.28283472 17.3707405,1.7726773 17.3946955,0.472972973 C17.4203616,1.7726773 12.5609203,7.28283472 9.07546891,10.4681142 C5.5917286,13.6533937 3.38102502,14.6418918 1.16005502,19.0354546 C-1.05920391,23.4288836 2.97721229,27.602795 9.5340359,27.5295779 C14.0358634,27.4792495 16.0617713,24.9103591 16.8882185,23.3042672 L16.8882185,25.4062813 C16.8882185,25.4062813 15.450919,32.98847 5.30769083,33.8184871 L3.69072885,33.8184871 L3.69072885,35 L31.310835,35 L31.310835,33.8184871 L29.6921619,33.8184871 C19.5506448,32.98847 18.1116342,25.4062813 18.1116342,25.4062813 L18.1116342,23.5802704 C19.0852335,25.1881023 21.2138057,27.4820604 25.4658169,27.5295779" id="Pique"></path>
                </g>
                <g id="Symbol-/-Pique" transform="translate(146.000000, 54.000000)" fill="#1A1919">
                    <path d="M25.4658169,27.5295779 C32.0243515,27.602795 36.0590567,23.4288836 33.8397977,19.0354546 C31.6205388,14.6418918 29.4081242,13.6533937 25.9243839,10.4681142 C22.4389325,7.28283472 17.3707405,1.7726773 17.3946955,0.472972973 C17.4203616,1.7726773 12.5609203,7.28283472 9.07546891,10.4681142 C5.5917286,13.6533937 3.38102502,14.6418918 1.16005502,19.0354546 C-1.05920391,23.4288836 2.97721229,27.602795 9.5340359,27.5295779 C14.0358634,27.4792495 16.0617713,24.9103591 16.8882185,23.3042672 L16.8882185,25.4062813 C16.8882185,25.4062813 15.450919,32.98847 5.30769083,33.8184871 L3.69072885,33.8184871 L3.69072885,35 L31.310835,35 L31.310835,33.8184871 L29.6921619,33.8184871 C19.5506448,32.98847 18.1116342,25.4062813 18.1116342,25.4062813 L18.1116342,23.5802704 C19.0852335,25.1881023 21.2138057,27.4820604 25.4658169,27.5295779" id="Pique"></path>
                </g>
                <g id="Symbol-/-Pique" transform="translate(58.000000, 54.000000)" fill="#1A1919">
                    <path d="M25.4658169,27.5295779 C32.0243515,27.602795 36.0590567,23.4288836 33.8397977,19.0354546 C31.6205388,14.6418918 29.4081242,13.6533937 25.9243839,10.4681142 C22.4389325,7.28283472 17.3707405,1.7726773 17.3946955,0.472972973 C17.4203616,1.7726773 12.5609203,7.28283472 9.07546891,10.4681142 C5.5917286,13.6533937 3.38102502,14.6418918 1.16005502,19.0354546 C-1.05920391,23.4288836 2.97721229,27.602795 9.5340359,27.5295779 C14.0358634,27.4792495 16.0617713,24.9103591 16.8882185,23.3042672 L16.8882185,25.4062813 C16.8882185,25.4062813 15.450919,32.98847 5.30769083,33.8184871 L3.69072885,33.8184871 L3.69072885,35 L31.310835,35 L31.310835,33.8184871 L29.6921619,33.8184871 C19.5506448,32.98847 18.1116342,25.4062813 18.1116342,25.4062813 L18.1116342,23.5802704 C19.0852335,25.1881023 21.2138057,27.4820604 25.4658169,27.5295779" id="Pique"></path>
                </g>
                <g id="Small-Carreau" transform="translate(14.000000, 62.000000)" fill="#1A1919">
                    <g id="Symbol-/-Pique">
                        <path d="M16.1687726,17.3912624 C20.3329216,17.4375159 22.8946392,14.8007305 21.4855859,12.0252693 C20.0765326,9.24972347 18.6718249,8.62525949 16.4599263,6.61302262 C14.2469413,4.60078575 11.0290416,1.11985357 11.0442511,0.298791254 C11.060547,1.11985357 7.97518748,4.60078575 5.76220248,6.61302262 C3.55030387,8.62525949 2.14668255,9.24972347 0.736542869,12.0252693 C-0.67251042,14.8007305 1.89029352,17.4375159 6.05335613,17.3912624 C8.91165929,17.3594685 10.19795,15.7366231 10.7226784,14.7220066 L10.7226784,16.0499121 C10.7226784,16.0499121 9.8101073,20.8398087 3.36996243,21.3641555 L2.3433199,21.3641555 L2.3433199,22.1105528 L19.8798952,22.1105528 L19.8798952,21.3641555 L18.8521663,21.3641555 C12.4131078,20.8398087 11.4994503,16.0499121 11.4994503,16.0499121 L11.4994503,14.8963661 C12.1176086,15.9120819 13.469083,17.3612442 16.1687726,17.3912624" id="Pique"></path>
                    </g>
                    <g id="Symbol-/-Pique" transform="translate(202.888889, 206.944724) rotate(180.000000) translate(-202.888889, -206.944724) translate(191.777778, 195.889447)">
                        <path d="M16.1687726,17.3912624 C20.3329216,17.4375159 22.8946392,14.8007305 21.4855859,12.0252693 C20.0765326,9.24972347 18.6718249,8.62525949 16.4599263,6.61302262 C14.2469413,4.60078575 11.0290416,1.11985357 11.0442511,0.298791254 C11.060547,1.11985357 7.97518748,4.60078575 5.76220248,6.61302262 C3.55030387,8.62525949 2.14668255,9.24972347 0.736542869,12.0252693 C-0.67251042,14.8007305 1.89029352,17.4375159 6.05335613,17.3912624 C8.91165929,17.3594685 10.19795,15.7366231 10.7226784,14.7220066 L10.7226784,16.0499121 C10.7226784,16.0499121 9.8101073,20.8398087 3.36996243,21.3641555 L2.3433199,21.3641555 L2.3433199,22.1105528 L19.8798952,22.1105528 L19.8798952,21.3641555 L18.8521663,21.3641555 C12.4131078,20.8398087 11.4994503,16.0499121 11.4994503,16.0499121 L11.4994503,14.8963661 C12.1176086,15.9120819 13.469083,17.3612442 16.1687726,17.3912624" id="Pique"></path>
                    </g>
                </g>
                <g id="Letter-/-Noir" transform="translate(10.000000, 8.000000)" fill="#000000" font-family="Helvetica" font-size="40" font-weight="normal">
                    <text id="A">
                        <tspan x="0" y="29">10</tspan>
                    </text>
                </g>
                <g id="Letter-/-Noir" transform="translate(202.000000, 310.000000) rotate(180.000000) translate(-202.000000, -310.000000) translate(176.000000, 286.000000)" fill="#000000" font-family="Helvetica" font-size="40" font-weight="normal">
                    <text id="A">
                        <tspan x="0" y="29">10</tspan>
                    </text>
                </g>
            </g>
        </g>
    </g>
</svg>