<?xml version="1.0" encoding="UTF-8"?>
<svg width="242px" height="340px" viewBox="0 0 242 340" version="1.1" xmlns="http://www.w3.org/2000/svg" xmlns:xlink="http://www.w3.org/1999/xlink">
    <title>hearts/q</title>
    <g id="Page-1" stroke="none" stroke-width="1" fill="none" fill-rule="evenodd">
        <g id="Card-deck" transform="translate(-2686.000000, -825.000000)">
            <g id="hearts/q" transform="translate(2686.000000, 825.000000)">
                <polygon id="BG" fill="#FFFFFF" points="0 0 242 0 242 340 0 340"></polygon>
                <g id="Small-Carreau" transform="translate(14.000000, 62.000000)" fill="#DB362A">
                    <g id="Symbol-/-Coeur">
                        <path d="M14.9621357,0.410188466 C11.8471435,0.466650991 11.2278844,4.648642 11.2278844,4.648642 C11.2278844,4.648642 10.5090634,0.466650991 7.39407129,0.410188466 C4.27900316,0.353636318 2.36202062,3.57486818 3.41638762,6.96566686 C4.47067862,10.3563759 5.52116955,11.119337 7.17647937,13.5776078 C8.8317132,16.0359682 11.2398926,20.2885822 11.2278844,21.2916434 C11.2159522,20.2885822 13.5244178,16.0359682 15.1797276,13.5776078 C16.8350374,11.119337 17.8855283,10.3563759 18.9398193,6.96566686 C19.9941103,3.57486818 18.0772038,0.353636318 14.9621357,0.410188466" id="Coeur"></path>
                    </g>
                    <g id="Symbol-/-Coeur" transform="translate(202.888889, 206.944724) rotate(180.000000) translate(-202.888889, -206.944724) translate(191.777778, 195.889447)">
                        <path d="M14.9621357,0.410188466 C11.8471435,0.466650991 11.2278844,4.648642 11.2278844,4.648642 C11.2278844,4.648642 10.5090634,0.466650991 7.39407129,0.410188466 C4.27900316,0.353636318 2.36202062,3.57486818 3.41638762,6.96566686 C4.47067862,10.3563759 5.52116955,11.119337 7.17647937,13.5776078 C8.8317132,16.0359682 11.2398926,20.2885822 11.2278844,21.2916434 C11.2159522,20.2885822 13.5244178,16.0359682 15.1797276,13.5776078 C16.8350374,11.119337 17.8855283,10.3563759 18.9398193,6.96566686 C19.9941103,3.57486818 18.0772038,0.353636318 14.9621357,0.410188466" id="Coeur"></path>
                    </g>
                </g>
                <g id="Letter-/-Rouge" transform="translate(10.000000, 8.000000)" fill="#DB362A" font-family="Helvetica" font-size="40" font-weight="normal">
                    <text id="A">
                        <tspan x="0" y="29">Q</tspan>
                    </text>
                </g>
                <g id="Letter-/-Rouge" transform="translate(202.000000, 310.000000) rotate(180.000000) translate(-202.000000, -310.000000) translate(176.000000, 286.000000)" fill="#DB362A" font-family="Helvetica" font-size="40" font-weight="normal">
                    <text id="A">
                        <tspan x="0" y="29">Q</tspan>
                    </text>
                </g>
                <g id="Queen" transform="translate(72.000000, 30.000000)">
                    <g id="Queen-Bot" transform="translate(0.000000, 141.000000)">
                        <path d="M92.4320569,27.5879318 C91.8901214,28.5316705 88.1707666,33.5307614 88.1852827,35.6185227 C88.2030247,38.7077045 90.5433472,41.1848182 90.3062505,45.0559091 C90.0030247,50.0710227 86.198186,53.2178864 86.7675408,55.3793523 C87.1530247,56.840625 87.730444,59.6734432 88.1852827,61.1138864 C90.7594763,69.2806705 86.0610892,86.4362045 83.2288311,94.611 C81.1433472,100.625932 78.0385085,106.129739 71.6336698,106.129739 L33.0546376,106.129739 C26.6530247,106.129739 23.5449601,100.625932 21.464315,94.611 C18.6288311,86.4362045 13.9288311,69.2806705 16.5078634,61.1138864 C16.9610892,59.6734432 17.5352827,56.840625 17.9207666,55.3793523 C18.4917343,53.2178864 14.6885085,50.0710227 14.3820569,45.0559091 C14.146573,41.1848182 16.4885085,38.7077045 16.5078634,35.6185227 C16.5191537,33.5307614 12.8014118,28.5316705 12.2578634,27.5879318 C7.53850853,19.3826932 15.0901214,10.9723636 15.0901214,10.9723636 C15.0901214,4.61134091 26.6562505,3.507375 33.0578634,3.507375 L71.6352827,3.507375 C78.0385085,3.507375 89.5997989,4.61134091 89.5997989,10.9723636 C89.5997989,10.9723636 97.1530247,19.3826932 92.4320569,27.5879318" id="Fill-1071" fill="#775B35"></path>
                        <path d="M52.8949601,49.1849659 C73.2659279,49.1849659 90.5594763,26.5688864 92.9707666,5.04075 L13.9675408,5.04075 C16.2320569,26.5688864 32.5223795,49.1849659 52.8949601,49.1849659" id="Fill-1072" fill="#E34E45"></path>
                        <path d="M92.9707666,5.04075 C93.1578634,3.35035227 93.2578634,1.66636364 93.2578634,0 C68.8610892,0 49.8836698,0 13.696573,0 C13.696573,1.66636364 13.7901214,3.35035227 13.9675408,5.04075 L92.9707666,5.04075" id="Fill-1073" fill="#FFFFFF"></path>
                        <path d="M33.8239924,39.5521023 C33.8239924,32.9251023 42.2739924,13.78275 52.698186,13.78275 C63.1223795,13.78275 71.5723795,32.9251023 71.5723795,39.5521023 C71.5723795,46.1807045 63.1223795,51.5515227 52.698186,51.5515227 C42.2739924,51.5515227 33.8239924,46.1807045 33.8239924,39.5521023" id="Fill-1074" fill="#FFFFFF"></path>
                        <path d="M38.0433472,42.8864318 C38.0433472,36.5109886 44.2530247,18.9757159 52.3449601,18.9757159 C60.4401214,18.9757159 67.3546376,36.5109886 67.3546376,42.8864318 C67.3546376,49.261875 60.7933472,54.4308068 52.698186,54.4308068 C44.6046376,54.4308068 38.0433472,49.261875 38.0433472,42.8864318" id="Fill-1075" fill="#F1D2AC"></path>
                        <path d="M6.06270208,43.9936023 C6.06270208,49.2746932 10.3739924,53.5575682 15.6901214,53.5575682 C21.0078634,53.5575682 25.3159279,49.2746932 25.3159279,43.9936023 L25.3159279,43.0674886 L6.06270208,43.0674886 L6.06270208,43.9936023" id="Fill-1076" fill="#F1D2AC"></path>
                        <path d="M37.8901214,43.3462841 L36.930444,46.4338636 L38.8594763,43.833375 C39.1917343,43.3847386 39.8691537,43.0610795 40.364315,42.8255455 C40.6272182,42.6989659 40.8368956,42.6012273 40.9739924,42.4954773 C42.0401214,41.7279886 41.6772182,40.5839659 41.4578634,39.8997955 C41.4078634,39.7331591 41.3288311,39.4832045 41.3272182,39.3870682 L41.3610892,39.3117614 L41.8433472,38.8198636 C42.2401214,38.4176932 42.9562505,38.1981818 43.480444,38.0379545 C43.7546376,37.9562386 43.9707666,37.8889432 44.1207666,37.8072273 C45.1675408,37.2656591 45.0901214,36.2434091 45.0594763,35.8556591 C45.046573,35.6954318 45.0239924,35.5368068 45.0046376,35.3813864 C44.980444,35.1939205 44.9417343,34.915125 44.9610892,34.8157841 L44.996573,34.7597045 L45.5659279,34.3751591 C45.8336698,34.1973068 46.2368956,34.0803409 46.7562505,34.0290682 C46.9675408,34.0114432 47.1659279,34.0050341 47.3385085,34.0002273 C47.5868956,33.9922159 47.7852827,33.9858068 47.9320569,33.9553636 C49.030444,33.7454659 49.246573,32.8049318 49.3385085,32.412375 L49.430444,31.9925795 C49.4659279,31.8147273 49.5191537,31.5519545 49.5675408,31.4526136 L49.6239924,31.4173636 L50.3014118,31.2859773 C50.4514118,31.2555341 50.6030247,31.2715568 50.8449601,31.3260341 C51.0110892,31.3580795 51.1917343,31.425375 51.4159279,31.5407386 C51.6175408,31.6352727 51.7933472,31.7554432 51.9514118,31.8627955 L52.3288311,32.0903182 C52.7691537,32.2857955 53.2046376,32.2809886 53.4449601,32.1752386 C53.7094763,32.095125 53.964315,31.9461136 54.2627021,31.7041705 L54.4723795,31.5359318 C54.648186,31.3933295 54.9449601,31.1529886 55.0094763,31.1273523 L55.1078634,31.1385682 L55.6723795,31.4862614 C55.9272182,31.6432841 56.1788311,31.9685455 56.3997989,32.4235909 C56.496573,32.6302841 56.5723795,32.8241591 56.6385085,32.9907955 C56.7191537,33.1926818 56.7820569,33.3545114 56.8659279,33.4923068 C57.0997989,33.8688409 57.4207666,34.1187955 57.8288311,34.2389659 C58.1159279,34.3142727 58.4530247,34.3190795 58.8320569,34.2758182 L59.2578634,34.2085227 C59.4675408,34.1732727 59.6659279,34.139625 59.798186,34.139625 L59.8449601,34.1380227 L59.9288311,34.1908977 L60.314315,34.7324659 C60.6417343,35.1939205 60.7207666,35.972625 60.7707666,36.4853523 C60.798186,36.7529318 60.8207666,36.9676364 60.8675408,37.1230568 C61.2159279,38.3648182 62.4127021,38.4321136 63.1288311,38.4721705 C63.3175408,38.4833864 63.5997989,38.4994091 63.648186,38.5138295 L63.7207666,38.5827273 L64.0094763,39.2108182 C64.2433472,39.7203409 64.2014118,40.4653977 64.1691537,41.0085682 C64.1546376,41.2985795 64.1401214,41.5277045 64.1659279,41.6991477 C64.3272182,42.9937841 65.5062505,43.2325227 66.214315,43.3767273 C66.3949601,43.4119773 66.6691537,43.4664545 66.7127021,43.4872841 L68.7175408,46.0252841 L67.6739924,43.0082045 C67.6675408,42.9248864 67.7449601,42.670125 67.796573,42.5034886 C68.0030247,41.8225227 68.3885085,40.5535227 67.2062505,39.7491818 C67.0207666,39.6226023 66.7449601,39.51525 66.398186,39.3822614 C65.898186,39.1883864 65.2127021,38.9240114 64.9078634,38.6067614 L64.8885085,38.5875341 L64.5256053,37.8969545 C64.5078634,37.8184432 64.548186,37.558875 64.5723795,37.3858295 C64.6788311,36.6792273 64.8756053,35.3637614 63.5739924,34.7356705 C63.3594763,34.6315227 63.048186,34.5642273 62.6578634,34.4809091 C62.1401214,34.3719545 61.4320569,34.2213409 61.0836698,33.9729886 L61.0401214,33.9441477 L60.5578634,33.3432955 C60.5272182,33.276 60.5110892,33.0420682 60.496573,32.870625 C60.480444,32.6623295 60.4610892,32.4283977 60.4159279,32.1864545 C60.196573,30.9478977 59.4159279,30.5585455 58.8159279,30.4511932 C58.580444,30.4047273 58.2062505,30.4271591 57.7288311,30.4624091 L57.4062505,30.4880455 C57.0175408,30.5232955 56.5433472,30.544125 56.2207666,30.5056705 L55.3159279,30.1035 L55.0756053,29.768625 C54.9497989,29.5715455 54.7933472,29.3296023 54.5933472,29.1084886 C54.1449601,28.5973636 53.5756053,28.3121591 52.9852827,28.3121591 C52.7046376,28.3121591 52.4207666,28.37625 52.1433472,28.499625 C51.7885085,28.6598523 51.3094763,29.0780455 50.9788311,29.3952955 L50.4110892,29.9160341 C50.230444,30.0730568 50.0675408,30.1900227 49.9191537,30.2765455 L49.8691537,30.3069886 L49.114315,30.4848409 C49.0256053,30.4848409 48.8175408,30.4239545 48.6352827,30.3694773 C48.4256053,30.3069886 48.1917343,30.2380909 47.9239924,30.1868182 C47.4997989,30.1179205 47.1385085,30.1339432 46.7788311,30.2396932 C46.346573,30.3790909 45.980444,30.6787159 45.7159279,31.1145341 C45.5868956,31.3420568 45.496573,31.6737273 45.3820569,32.0935227 C45.2433472,32.5966364 45.0707666,33.2135114 44.8352827,33.5628068 L44.1659279,34.104375 C44.0949601,34.1332159 43.8562505,34.1428295 43.680444,34.1492386 C43.4707666,34.15725 43.2449601,34.1668636 43.0223795,34.1973068 C41.7949601,34.3591364 41.3675408,35.0785568 41.2223795,35.6521705 C41.1659279,35.8764886 41.1627021,36.1761136 41.1562505,36.55425 C41.1497989,37.0846023 41.1401214,37.8104318 40.9546376,38.2045909 L40.9272182,38.2590682 L40.4272182,38.8134545 C40.3578634,38.8567159 40.096573,38.9143977 39.9223795,38.95125 C39.2239924,39.1018636 37.9223795,39.3806591 37.7852827,40.7954659 C37.7659279,41.0181818 37.8030247,41.3065909 37.8530247,41.6703068 C37.9256053,42.2006591 38.0207666,42.9248864 37.8901214,43.3462841" id="Fill-1077" fill="#E6A52E"></path>
                        <path d="M28.4014118,70.7852045 C28.4014118,53.6937614 39.3256053,35.6185227 52.8030247,35.6185227 C66.2788311,35.6185227 77.2046376,53.6937614 77.2046376,70.7852045 C77.2046376,87.87825 75.3062505,101.733102 52.8030247,101.733102 C28.4014118,101.733102 28.4014118,87.87825 28.4014118,70.7852045" id="Fill-1078" fill="#F1D2AC"></path>
                        <path d="M83.5320569,87.8205682 C83.5320569,81.4595455 81.6449601,77.9617841 73.9562505,75.8099318 C66.1949601,73.63725 54.0191537,72.7784318 46.8868956,75.3869318 C39.7578634,77.9954318 33.3191537,86.0805 30.9562505,89.5622386 C28.9788311,92.4719659 29.4207666,99.5347841 29.4207666,99.5347841 C29.4207666,105.895807 37.4433472,111.755318 43.848186,111.755318 L57.7756053,111.755318 C70.7336698,111.755318 77.0110892,105.775636 80.9352827,99.7991591 C83.230444,96.3062045 83.5320569,87.8205682 83.5320569,87.8205682" id="Fill-1079" fill="#775B35"></path>
                        <path d="M76.7820569,107.615045 C76.7820569,108.582818 77.5675408,109.363125 78.5385085,109.363125 C79.5127021,109.363125 80.298186,108.582818 80.298186,107.615045 C80.298186,106.648875 79.5127021,105.865364 78.5385085,105.865364 C77.5675408,105.865364 76.7820569,106.648875 76.7820569,107.615045 Z M64.9417343,109.363125 C64.9417343,111.297068 65.9368956,112.862489 67.164315,112.862489 C68.3901214,112.862489 69.3852827,111.297068 69.3852827,109.363125 C69.3852827,107.433989 68.3901214,105.865364 67.164315,105.865364 C65.9368956,105.865364 64.9417343,107.433989 64.9417343,109.363125 Z M48.4530247,111.790568 C48.2514118,112.458716 48.1401214,113.194159 48.1401214,113.964852 C48.1401214,115.083239 48.3756053,116.123114 48.780444,116.991545 L48.8368956,117.118125 L48.8691537,117.174205 C48.9433472,117.324818 49.0256053,117.46742 49.1078634,117.603614 C50.1207666,119.415784 51.0578634,121.019659 51.4401214,121.782341 C52.1062505,123.109023 52.8175408,121.758307 52.8175408,121.758307 L54.8159279,118.093909 L54.8272182,118.084295 C55.1723795,117.638864 55.4659279,117.110114 55.680444,116.51567 L55.9094763,116.097477 L55.9062505,115.780227 C56.046573,115.213023 56.1256053,114.599352 56.1256053,113.964852 C56.1256053,113.27908 56.0368956,112.620545 55.8756053,112.014886 L55.8707666,111.790568 L55.7159279,111.51017 C55.4836698,110.838818 55.1546376,110.245977 54.7530247,109.758886 L52.9062505,106.389307 C52.9062505,106.389307 52.2191537,104.772614 51.3401214,106.338034 C50.6707666,107.531727 49.5772182,109.4865 49.0997989,110.343716 L48.8949601,110.701023 L48.8546376,110.779534 C48.696573,111.09358 48.5627021,111.433261 48.4530247,111.790568 Z M35.6868956,109.363125 C35.6868956,111.297068 36.680444,112.862489 37.9078634,112.862489 C39.1352827,112.862489 40.1288311,111.297068 40.1288311,109.363125 C40.1288311,107.433989 39.1352827,105.865364 37.9078634,105.865364 C36.680444,105.865364 35.6868956,107.433989 35.6868956,109.363125 Z M24.7739924,107.615045 C24.7739924,108.582818 25.5594763,109.363125 26.530444,109.363125 C27.5046376,109.363125 28.2901214,108.582818 28.2901214,107.615045 C28.2901214,106.648875 27.5046376,105.865364 26.530444,105.865364 C25.5594763,105.865364 24.7739924,106.648875 24.7739924,107.615045 Z M18.3772182,118.279773 C18.3772182,117.916057 18.3772182,117.555545 18.3772182,117.19183 L18.4159279,117.130943 C18.4901214,116.743193 18.6868956,116.424341 18.9546376,116.147148 C19.4949601,115.594364 20.1497989,115.366841 20.9191537,115.44375 L21.1772182,115.435739 L21.214315,115.174568 C21.2756053,114.700295 21.3320569,114.22442 21.3885085,113.75175 C21.4627021,113.139682 21.5401214,112.522807 21.614315,111.909136 C21.6868956,111.314693 21.7578634,110.715443 21.8320569,110.116193 C21.9094763,109.513739 21.9836698,108.90808 22.0578634,108.30242 C22.1497989,107.549352 22.2368956,106.796284 22.3288311,106.043216 C22.4272182,105.258102 22.5239924,104.471386 22.6223795,103.686273 L22.6901214,103.364216 L22.9288311,103.33217 C23.1546376,103.311341 23.3756053,103.290511 23.598186,103.266477 C24.046573,103.224818 24.4917343,103.175148 24.9385085,103.133489 C25.3578634,103.09183 25.7820569,103.05658 26.1997989,103.018125 C26.6659279,102.974864 27.1256053,102.93 27.5901214,102.891545 C28.0933472,102.853091 28.598186,102.814636 29.1014118,102.776182 C29.898186,102.716898 30.6917343,102.652807 31.4852827,102.596727 C32.148186,102.555068 32.8110892,102.516614 33.4739924,102.481364 C34.3514118,102.428489 35.2288311,102.38042 36.1078634,102.337159 C37.0159279,102.292295 37.930444,102.253841 38.8433472,102.212182 C39.180444,102.197761 39.5239924,102.194557 39.8610892,102.180136 C40.5739924,102.156102 41.2868956,102.124057 42.0014118,102.103227 C42.7707666,102.079193 43.5417343,102.067977 44.314315,102.050352 C45.1191537,102.03433 45.9223795,102.015102 46.730444,102.002284 C47.5578634,101.991068 48.3901214,101.987864 49.2191537,101.984659 C50.514315,101.984659 51.8094763,101.987864 53.1030247,101.994273 C54.0594763,101.99908 55.014315,102.008693 55.9659279,102.015102 C56.3578634,102.019909 56.7497989,102.026318 57.1368956,102.037534 C57.8772182,102.050352 58.614315,102.067977 59.3546376,102.082398 C59.7175408,102.088807 60.0836698,102.093614 60.448186,102.103227 C61.2014118,102.124057 61.9562505,102.156102 62.7110892,102.180136 C63.614315,102.215386 64.5191537,102.247432 65.4223795,102.28108 C66.2191537,102.313125 67.0110892,102.34517 67.8078634,102.38042 C68.380444,102.404455 68.9546376,102.433295 69.5223795,102.460534 C70.2368956,102.498989 70.948186,102.540648 71.6627021,102.579102 C72.3385085,102.617557 73.0191537,102.656011 73.6997989,102.699273 C74.0062505,102.716898 74.3078634,102.737727 74.6159279,102.758557 C75.2046376,102.800216 75.7901214,102.841875 76.3788311,102.883534 C76.9320569,102.926795 77.4885085,102.962045 78.0433472,103.003705 C78.746573,103.059784 79.4497989,103.119068 80.1514118,103.178352 C80.7788311,103.231227 81.4062505,103.287307 82.0368956,103.343386 L82.2449601,103.381841 C82.3223795,104.194193 82.3691537,105.00975 82.4320569,105.822102 C82.496573,106.628045 82.5449601,107.433989 82.6046376,108.239932 C82.664315,109.052284 82.7272182,109.867841 82.7885085,110.680193 C82.8433472,111.486136 82.898186,112.290477 82.9610892,113.09642 C83.0239924,113.910375 83.0707666,114.721125 83.1449601,115.517455 L83.1852827,115.544693 L83.3336698,115.555909 C83.796573,115.559114 84.2159279,115.698511 84.5933472,115.961284 C85.0836698,116.300966 85.396573,116.764023 85.530444,117.345648 L85.6368956,117.587591 C85.6368956,117.768648 85.6368956,117.951307 85.6368956,118.132364 L85.5336698,118.347068 C85.2691537,119.558386 84.0707666,120.388364 82.764315,120.107966 C81.6110892,119.862818 80.7433472,118.74283 80.9868956,117.419352 C81.0917343,116.861761 81.3739924,116.406716 81.8191537,116.049409 L81.9723795,115.913216 C80.1578634,114.2805 78.3497989,112.655795 76.5449601,111.034295 C75.9659279,110.515159 74.8320569,109.363125 74.580444,110.334102 C74.4110892,110.984625 74.3627021,111.663989 74.2530247,112.333739 C74.148186,112.985864 74.0368956,113.633182 73.9320569,114.285307 C73.8239924,114.942239 73.7159279,115.600773 73.6078634,116.259307 C73.498186,116.921045 73.3885085,117.57958 73.2836698,118.238114 C73.1739924,118.896648 73.064315,119.555182 72.9594763,120.213716 C72.864315,120.808159 72.764315,121.401 72.6707666,121.997045 L72.6739924,122.122023 L72.8352827,122.130034 C73.5627021,122.174898 74.1852827,122.452091 74.6868956,122.976034 C75.3836698,123.708273 75.6175408,124.581511 75.3949601,125.557295 C75.0885085,126.912818 73.730444,127.946284 72.1159279,127.641852 C70.6772182,127.37267 69.5933472,125.946648 69.9207666,124.342773 C70.0578634,123.687443 70.396573,123.152284 70.914315,122.732489 L71.0933472,122.556239 L70.9562505,122.413636 C70.4949601,121.965 70.0320569,121.513159 69.5756053,121.061318 C68.7885085,120.290625 68.0014118,119.519932 67.2159279,118.749239 C66.4497989,117.992966 65.6820569,117.239898 64.9175408,116.48683 C64.280444,115.860341 63.6449601,115.229045 63.0078634,114.602557 C62.7659279,114.363818 61.8885085,114.318955 61.4868956,115.080034 C59.6110892,118.613045 54.4288311,128.46542 53.1110892,131.021045 C52.5385085,130.461852 52.0352827,130.237534 51.1820569,130.972977 C48.6433472,125.904989 45.8223795,120.263386 43.314315,115.243466 C42.9756053,114.575318 42.7868956,114.035352 41.6385085,114.942239 C38.9352827,117.074864 36.2691537,120.115977 33.8223795,122.535409 L33.7562505,122.62033 L33.9917343,122.807795 C34.880444,123.519205 35.2885085,124.768977 34.8497989,125.938636 C34.214315,127.617818 32.2756053,128.215466 30.8191537,127.385489 C29.7997989,126.805466 29.2320569,125.663045 29.4578634,124.461341 C29.7368956,122.984045 31.0368956,122.157273 32.2046376,122.189318 L32.4127021,122.166886 C31.9788311,118.581 31.5497989,115.00633 31.1175408,111.433261 C31.048186,110.842023 30.6852827,109.840602 29.5997989,110.576045 C27.1594763,112.231193 22.564315,116.097477 22.4272182,116.230466 L22.5788311,116.453182 C23.2530247,117.464216 23.0272182,118.819739 22.0659279,119.558386 C21.596573,119.915693 21.0675408,120.059898 20.4772182,120.031057 C19.5094763,119.982989 18.6530247,119.277989 18.4191537,118.339057 L18.3772182,118.279773 L18.3772182,118.279773 Z" id="Fill-1080" fill="#E6A52E"></path>
                        <path d="M22.5610892,101.707466 L22.4030247,101.707466 C22.4272182,101.036114 22.4707666,100.369568 22.5014118,99.704625 C22.530444,99.0380795 22.564315,98.3731364 22.6046376,97.7049886 C22.6433472,97.04325 22.664315,96.3767045 22.7127021,95.70375 L22.846573,95.6701023 C23.3836698,95.6172273 23.9191537,95.5643523 24.4546376,95.5082727 C24.8788311,95.4666136 25.298186,95.42175 25.7159279,95.3832955 C26.1578634,95.3400341 26.5949601,95.3015795 27.0320569,95.263125 C27.530444,95.2214659 28.0272182,95.1766023 28.5207666,95.1365455 C29.0239924,95.0948864 29.5320569,95.0564318 30.0352827,95.0227841 C30.646573,94.9763182 31.2594763,94.9346591 31.8723795,94.8881932 C32.1627021,94.8673636 32.4514118,94.8497386 32.7433472,94.8321136 C33.4288311,94.7936591 34.1175408,94.7552045 34.8014118,94.71675 C35.6417343,94.6718864 36.4772182,94.628625 37.3127021,94.5917727 C37.9675408,94.5597273 38.6239924,94.5340909 39.280444,94.5100568 C39.9675408,94.4828182 40.6546376,94.4539773 41.3417343,94.4331477 C41.6852827,94.4235341 42.0223795,94.4203295 42.3659279,94.4123182 C42.9852827,94.3978977 43.6094763,94.3802727 44.230444,94.3658523 C44.5723795,94.3562386 44.9110892,94.3498295 45.248186,94.346625 C46.480444,94.3322045 47.7062505,94.3209886 48.9368956,94.3145795 C49.948186,94.3033636 50.9594763,94.2921477 51.9756053,94.2969545 C53.2191537,94.3001591 54.464315,94.3145795 55.7078634,94.3322045 C56.5723795,94.3418182 57.4352827,94.3594432 58.296573,94.3802727 C59.0788311,94.3978977 59.8578634,94.4203295 60.6368956,94.4443636 C61.6127021,94.4748068 62.5949601,94.5068523 63.5707666,94.5421023 C64.3594763,94.5741477 65.146573,94.6045909 65.9320569,94.6398409 C66.9546376,94.6895114 67.9739924,94.7375795 68.9933472,94.7904545 C69.8030247,94.8321136 70.614315,94.8785795 71.4288311,94.9234432 C72.064315,94.9618977 72.7014118,95.0115682 73.3401214,95.0532273 C73.9288311,95.0916818 74.5175408,95.1269318 75.1030247,95.1685909 C75.6739924,95.2070455 76.2449601,95.2535114 76.8159279,95.298375 C77.314315,95.3368295 77.8094763,95.3752841 78.3030247,95.4137386 C78.7578634,95.4489886 79.2127021,95.4874432 79.6691537,95.5291023 C80.1578634,95.5707614 80.6449601,95.6204318 81.1320569,95.6652955 L81.2836698,95.6877273 L81.314315,95.9713295 C81.3433472,96.4888636 81.3675408,97.008 81.3917343,97.5303409 C81.4239924,98.1600341 81.4594763,98.7945341 81.4917343,99.4274318 C81.5256053,100.068341 81.5627021,100.712455 81.5933472,101.353364 L81.614315,101.725091 L81.4594763,101.763545 C80.796573,101.697852 80.1368956,101.627352 79.4788311,101.564864 C78.864315,101.503977 78.2546376,101.451102 77.6417343,101.396625 C76.9901214,101.335739 76.3368956,101.276455 75.6836698,101.220375 C75.1739924,101.178716 74.6578634,101.143466 74.148186,101.101807 C73.6014118,101.060148 73.0546376,101.016886 72.5078634,100.978432 C72.2191537,100.954398 71.930444,100.933568 71.6401214,100.915943 C70.9739924,100.874284 70.3159279,100.83583 69.6530247,100.797375 C68.898186,100.750909 68.1433472,100.706045 67.3885085,100.664386 C66.7110892,100.625932 66.0320569,100.593886 65.3514118,100.566648 C64.548186,100.528193 63.7433472,100.496148 62.9401214,100.464102 C62.2336698,100.440068 61.530444,100.419239 60.8239924,100.401614 C60.1917343,100.383989 59.5659279,100.366364 58.9336698,100.351943 C58.064315,100.331114 57.1933472,100.324705 56.3191537,100.30067 C54.2530247,100.247795 52.1868956,100.268625 50.1207666,100.260614 C49.5949601,100.260614 49.0739924,100.26542 48.5530247,100.27183 C47.5046376,100.28625 46.4578634,100.30067 45.414315,100.3215 C44.5933472,100.334318 43.7723795,100.359955 42.9497989,100.383989 C41.9627021,100.411227 40.9756053,100.446477 39.9917343,100.481727 C39.2256053,100.508966 38.4659279,100.544216 37.6997989,100.579466 C36.7739924,100.622727 35.846573,100.664386 34.9191537,100.715659 C33.9739924,100.771739 33.030444,100.83583 32.0885085,100.898318 C31.2659279,100.951193 30.448186,101.002466 29.6272182,101.063352 C28.9014118,101.116227 28.1707666,101.18192 27.4449601,101.241205 C26.9901214,101.279659 26.5352827,101.314909 26.080444,101.35817 C25.4772182,101.409443 24.8739924,101.47033 24.2723795,101.532818 C23.6997989,101.588898 23.1336698,101.651386 22.5610892,101.707466" id="Fill-1081" fill="#D28B2F"></path>
                        <path d="M26.530444,109.363125 C25.5594763,109.363125 24.7739924,108.582818 24.7739924,107.615045 C24.7739924,106.648875 25.5594763,105.865364 26.530444,105.865364 C27.5046376,105.865364 28.2901214,106.648875 28.2901214,107.615045 C28.2901214,108.582818 27.5046376,109.363125 26.530444,109.363125" id="Fill-1082" fill="#13A2A4"></path>
                        <path d="M37.9078634,112.862489 C36.680444,112.862489 35.6868956,111.297068 35.6868956,109.363125 C35.6868956,107.433989 36.680444,105.865364 37.9078634,105.865364 C39.1352827,105.865364 40.1288311,107.433989 40.1288311,109.363125 C40.1288311,111.297068 39.1352827,112.862489 37.9078634,112.862489" id="Fill-1083" fill="#E34E45"></path>
                        <path d="M48.1401214,135.932011 C46.9094763,134.91617 47.548186,134.586102 48.1401214,133.998068 C48.530444,133.610318 50.1352827,132.016057 51.1820569,130.972977 C51.280444,131.171659 51.3836698,131.371943 51.4820569,131.572227 L51.4997989,131.655545 L51.2917343,131.726045 C50.2239924,132.068932 49.498186,132.76592 49.1594763,133.834636 C48.6046376,135.59233 49.6917343,137.444557 51.5030247,137.857943 L51.8094763,137.928443 C52.0739924,137.928443 52.3417343,137.928443 52.6062505,137.928443 L52.6949601,137.888386 C53.6433472,137.787443 54.7707666,137.07283 55.2159279,135.826261 C55.8417343,134.068568 54.8272182,132.163466 53.0078634,131.690795 L52.7997989,131.631511 C52.8110892,131.605875 52.9207666,131.389568 53.1110892,131.021045 C54.048186,131.948761 55.3917343,133.28025 55.9094763,133.815409 C56.7417343,134.674227 57.3046376,134.733511 55.9094763,136.124284 C54.514315,137.515057 53.9627021,138.064636 53.3530247,138.65267 C52.2739924,139.69575 52.0352827,139.798295 51.0691537,138.841739 C50.4659279,138.244091 49.0852827,136.870943 48.1401214,135.932011" id="Fill-1084" fill="#E34E45"></path>
                        <path d="M48.780444,116.991545 C48.2207666,115.615193 48.8336698,110.942966 48.8546376,110.779534 L48.8949601,110.701023 C48.9368956,110.630523 49.0062505,110.50875 49.0997989,110.343716 C49.8256053,109.143614 50.914315,108.382534 52.1336698,108.382534 C53.1352827,108.382534 54.0562505,108.90167 54.7530247,109.758886 L55.7159279,111.51017 C55.7756053,111.675205 55.8272182,111.843443 55.8756053,112.014886 L55.9062505,115.780227 C55.846573,116.031784 55.7723795,116.280136 55.680444,116.51567 L54.8272182,118.084295 L54.8159279,118.093909 C54.1078634,118.997591 53.1627021,119.543966 52.1336698,119.543966 C50.9239924,119.543966 49.8401214,118.7925 49.1078634,117.603614 L48.8691537,117.174205 L48.780444,116.991545" id="Fill-1086" fill="#13A2A4"></path>
                        <path d="M51.5030247,137.857943 C49.6917343,137.444557 48.6046376,135.59233 49.1594763,133.834636 C49.498186,132.76592 50.2239924,132.068932 51.2917343,131.726045 L51.4997989,131.655545 L51.4820569,131.572227 C51.3836698,131.371943 51.280444,131.171659 51.1820569,130.972977 C52.0352827,130.237534 52.5385085,130.461852 53.1110892,131.021045 C52.9207666,131.389568 52.8110892,131.605875 52.7997989,131.631511 L53.0078634,131.690795 C54.8272182,132.163466 55.8417343,134.068568 55.2159279,135.826261 C54.7707666,137.07283 53.6433472,137.787443 52.6949601,137.888386 L52.6062505,137.928443 C52.3417343,137.928443 52.0739924,137.928443 51.8094763,137.928443 L51.5030247,137.857943" id="Fill-1089" fill="#E34E45"></path>
                        <path d="M67.164315,112.862489 C65.9368956,112.862489 64.9417343,111.297068 64.9417343,109.363125 C64.9417343,107.433989 65.9368956,105.865364 67.164315,105.865364 C68.3901214,105.865364 69.3852827,107.433989 69.3852827,109.363125 C69.3852827,111.297068 68.3901214,112.862489 67.164315,112.862489" id="Fill-1093" fill="#E34E45"></path>
                        <path d="M78.5385085,109.363125 C77.5675408,109.363125 76.7820569,108.582818 76.7820569,107.615045 C76.7820569,106.648875 77.5675408,105.865364 78.5385085,105.865364 C79.5127021,105.865364 80.298186,106.648875 80.298186,107.615045 C80.298186,108.582818 79.5127021,109.363125 78.5385085,109.363125" id="Fill-1094" fill="#13A2A4"></path>
                        <path d="M9.31592789,53.2771705 C9.14979885,53.2771705 8.9723795,53.2851818 8.78850853,53.2996023 C6.59012144,53.4950795 2.93366982,54.8746364 3.12721821,61.9470682 C3.12721821,61.9470682 3.11592789,63.0542386 3.92560531,62.339625 C4.73528273,61.6234091 6.46754079,60.5162386 8.48528273,59.7551591 C9.19173434,59.4891818 9.76754079,59.2248068 10.2562505,58.8947386 C9.3739924,61.86375 8.5723795,63.9435 8.33689563,64.3504773 C7.61915369,65.60025 8.33689563,67.3691591 8.33689563,67.3691591 L9.60947627,67.0583182 C9.7239924,65.7268295 11.4288311,59.9458295 12.7949601,54.3170455 C12.8562505,54.0975341 12.8917343,53.9533295 12.9062505,53.8491818 C13.3062505,52.1860227 13.6691537,50.5468977 13.948186,49.0535795 C15.1127021,53.6360795 16.914315,55.2495682 20.9546376,57.1610795 C25.1562505,59.1462955 30.1675408,63.2320909 30.2175408,63.2721477 C30.2175408,63.2721477 30.7933472,64.2319091 31.0336698,62.9629091 C33.3820569,50.4828068 25.8707666,46.688625 21.4239924,45.7913523 C21.0562505,45.7176477 20.7014118,45.6599659 20.3594763,45.6183068 C17.3885085,45.2561932 15.4675408,46.0445114 14.5368956,46.5940909 C14.4901214,46.3938068 14.4449601,46.2191591 14.4078634,46.0621364 C14.9772182,40.8291136 15.064315,37.7944091 14.4094763,35.0016477 L12.3723795,35.0016477 C12.4449601,35.3365227 12.5110892,35.6633864 12.5885085,36.0062727 C13.8046376,41.3146023 12.8852827,48.1883523 11.5852827,53.8459773 C11.0756053,53.5511591 10.3320569,53.2771705 9.31592789,53.2771705" id="Fill-1095" fill="#C5C158"></path>
                        <path d="M8.48528273,68.2327841 C8.48528273,68.2327841 16.1433472,77.1077727 4.53044402,84.652875 C4.24012144,84.8419432 4.24012144,84.8419432 4.24012144,84.8419432 L5.60947627,85.0470341 C5.60947627,85.0470341 0.0562504676,88.5191591 0.398185951,86.8800341 C0.741734339,85.2409091 1.78205692,81.88575 0.398185951,78.1396364 C-0.98245921,74.3919205 1.11270208,66.3164659 8.48528273,68.2327841" id="Fill-1096" fill="#E34E45"></path>
                        <path d="M21.3917343,87.87825 C22.7078634,90.1951364 8.84012144,84.7185682 7.44657305,67.9427727 C7.44657305,67.9427727 15.2320569,67.5245795 19.0030247,72.2705114 C19.0030247,72.2705114 22.5385085,75.1449886 20.2610892,80.7609545 C20.2610892,80.7609545 20.0723795,85.5613636 21.3917343,87.87825" id="Fill-1097" fill="#E34E45"></path>
                        <path d="M10.2030247,75.2859886 C10.2030247,75.2859886 18.6256053,82.1341023 12.7175408,88.8780682 C10.6739924,91.6996705 10.7433472,93.3452045 9.57560531,92.6241818 C8.40625047,91.9047614 4.41592789,91.9736591 3.16431498,86.8800341 C2.89496014,85.3979318 1.65625047,76.3018295 10.2030247,75.2859886" id="Fill-1098" fill="#E34E45"></path>
                        <path d="M13.9175408,69.988875 C13.9175408,69.988875 20.1352827,70.1154545 20.0078634,63.2481136 C20.0175408,62.9436818 19.7110892,62.6873182 19.1110892,62.7738409 C18.4852827,62.8619659 17.5256053,63.1087159 16.2401214,63.7480227 C16.2401214,63.7480227 16.7191537,62.7177614 16.4094763,61.4487614 C16.2997989,61.0033295 15.5885085,60.5434773 15.2546376,61.22925 C14.5675408,62.6520682 13.0820569,64.9465227 10.4562505,65.6210795 C6.55786337,66.6208977 4.40625047,66.8307955 5.48205692,68.5356136 C6.55786337,70.2404318 9.21108918,69.9872727 13.9175408,69.988875" id="Fill-1099" fill="#E34E45"></path>
                        <polygon id="Fill-1100" fill="#FFFFFF" points="6.06270208 43.6138636 25.3159279 43.6138636 25.3159279 38.8471023 6.06270208 38.8471023"></polygon>
                        <polygon id="Fill-1101" fill="#E34E45" points="6.06270208 38.8471023 25.3159279 38.8471023 25.3159279 5.04075 6.06270208 5.04075"></polygon>
                    </g>
                    <g id="Queen-Bot" transform="translate(53.000000, 71.000000) rotate(180.000000) translate(-53.000000, -71.000000) translate(6.000000, 1.000000)">
                        <path d="M92.4320569,27.5879318 C91.8901214,28.5316705 88.1707666,33.5307614 88.1852827,35.6185227 C88.2030247,38.7077045 90.5433472,41.1848182 90.3062505,45.0559091 C90.0030247,50.0710227 86.198186,53.2178864 86.7675408,55.3793523 C87.1530247,56.840625 87.730444,59.6734432 88.1852827,61.1138864 C90.7594763,69.2806705 86.0610892,86.4362045 83.2288311,94.611 C81.1433472,100.625932 78.0385085,106.129739 71.6336698,106.129739 L33.0546376,106.129739 C26.6530247,106.129739 23.5449601,100.625932 21.464315,94.611 C18.6288311,86.4362045 13.9288311,69.2806705 16.5078634,61.1138864 C16.9610892,59.6734432 17.5352827,56.840625 17.9207666,55.3793523 C18.4917343,53.2178864 14.6885085,50.0710227 14.3820569,45.0559091 C14.146573,41.1848182 16.4885085,38.7077045 16.5078634,35.6185227 C16.5191537,33.5307614 12.8014118,28.5316705 12.2578634,27.5879318 C7.53850853,19.3826932 15.0901214,10.9723636 15.0901214,10.9723636 C15.0901214,4.61134091 26.6562505,3.507375 33.0578634,3.507375 L71.6352827,3.507375 C78.0385085,3.507375 89.5997989,4.61134091 89.5997989,10.9723636 C89.5997989,10.9723636 97.1530247,19.3826932 92.4320569,27.5879318" id="Fill-1071" fill="#775B35"></path>
                        <path d="M52.8949601,49.1849659 C73.2659279,49.1849659 90.5594763,26.5688864 92.9707666,5.04075 L13.9675408,5.04075 C16.2320569,26.5688864 32.5223795,49.1849659 52.8949601,49.1849659" id="Fill-1072" fill="#E34E45"></path>
                        <path d="M92.9707666,5.04075 C93.1578634,3.35035227 93.2578634,1.66636364 93.2578634,0 C68.8610892,0 49.8836698,0 13.696573,0 C13.696573,1.66636364 13.7901214,3.35035227 13.9675408,5.04075 L92.9707666,5.04075" id="Fill-1073" fill="#FFFFFF"></path>
                        <path d="M33.8239924,39.5521023 C33.8239924,32.9251023 42.2739924,13.78275 52.698186,13.78275 C63.1223795,13.78275 71.5723795,32.9251023 71.5723795,39.5521023 C71.5723795,46.1807045 63.1223795,51.5515227 52.698186,51.5515227 C42.2739924,51.5515227 33.8239924,46.1807045 33.8239924,39.5521023" id="Fill-1074" fill="#FFFFFF"></path>
                        <path d="M38.0433472,42.8864318 C38.0433472,36.5109886 44.2530247,18.9757159 52.3449601,18.9757159 C60.4401214,18.9757159 67.3546376,36.5109886 67.3546376,42.8864318 C67.3546376,49.261875 60.7933472,54.4308068 52.698186,54.4308068 C44.6046376,54.4308068 38.0433472,49.261875 38.0433472,42.8864318" id="Fill-1075" fill="#F1D2AC"></path>
                        <path d="M6.06270208,43.9936023 C6.06270208,49.2746932 10.3739924,53.5575682 15.6901214,53.5575682 C21.0078634,53.5575682 25.3159279,49.2746932 25.3159279,43.9936023 L25.3159279,43.0674886 L6.06270208,43.0674886 L6.06270208,43.9936023" id="Fill-1076" fill="#F1D2AC"></path>
                        <path d="M37.8901214,43.3462841 L36.930444,46.4338636 L38.8594763,43.833375 C39.1917343,43.3847386 39.8691537,43.0610795 40.364315,42.8255455 C40.6272182,42.6989659 40.8368956,42.6012273 40.9739924,42.4954773 C42.0401214,41.7279886 41.6772182,40.5839659 41.4578634,39.8997955 C41.4078634,39.7331591 41.3288311,39.4832045 41.3272182,39.3870682 L41.3610892,39.3117614 L41.8433472,38.8198636 C42.2401214,38.4176932 42.9562505,38.1981818 43.480444,38.0379545 C43.7546376,37.9562386 43.9707666,37.8889432 44.1207666,37.8072273 C45.1675408,37.2656591 45.0901214,36.2434091 45.0594763,35.8556591 C45.046573,35.6954318 45.0239924,35.5368068 45.0046376,35.3813864 C44.980444,35.1939205 44.9417343,34.915125 44.9610892,34.8157841 L44.996573,34.7597045 L45.5659279,34.3751591 C45.8336698,34.1973068 46.2368956,34.0803409 46.7562505,34.0290682 C46.9675408,34.0114432 47.1659279,34.0050341 47.3385085,34.0002273 C47.5868956,33.9922159 47.7852827,33.9858068 47.9320569,33.9553636 C49.030444,33.7454659 49.246573,32.8049318 49.3385085,32.412375 L49.430444,31.9925795 C49.4659279,31.8147273 49.5191537,31.5519545 49.5675408,31.4526136 L49.6239924,31.4173636 L50.3014118,31.2859773 C50.4514118,31.2555341 50.6030247,31.2715568 50.8449601,31.3260341 C51.0110892,31.3580795 51.1917343,31.425375 51.4159279,31.5407386 C51.6175408,31.6352727 51.7933472,31.7554432 51.9514118,31.8627955 L52.3288311,32.0903182 C52.7691537,32.2857955 53.2046376,32.2809886 53.4449601,32.1752386 C53.7094763,32.095125 53.964315,31.9461136 54.2627021,31.7041705 L54.4723795,31.5359318 C54.648186,31.3933295 54.9449601,31.1529886 55.0094763,31.1273523 L55.1078634,31.1385682 L55.6723795,31.4862614 C55.9272182,31.6432841 56.1788311,31.9685455 56.3997989,32.4235909 C56.496573,32.6302841 56.5723795,32.8241591 56.6385085,32.9907955 C56.7191537,33.1926818 56.7820569,33.3545114 56.8659279,33.4923068 C57.0997989,33.8688409 57.4207666,34.1187955 57.8288311,34.2389659 C58.1159279,34.3142727 58.4530247,34.3190795 58.8320569,34.2758182 L59.2578634,34.2085227 C59.4675408,34.1732727 59.6659279,34.139625 59.798186,34.139625 L59.8449601,34.1380227 L59.9288311,34.1908977 L60.314315,34.7324659 C60.6417343,35.1939205 60.7207666,35.972625 60.7707666,36.4853523 C60.798186,36.7529318 60.8207666,36.9676364 60.8675408,37.1230568 C61.2159279,38.3648182 62.4127021,38.4321136 63.1288311,38.4721705 C63.3175408,38.4833864 63.5997989,38.4994091 63.648186,38.5138295 L63.7207666,38.5827273 L64.0094763,39.2108182 C64.2433472,39.7203409 64.2014118,40.4653977 64.1691537,41.0085682 C64.1546376,41.2985795 64.1401214,41.5277045 64.1659279,41.6991477 C64.3272182,42.9937841 65.5062505,43.2325227 66.214315,43.3767273 C66.3949601,43.4119773 66.6691537,43.4664545 66.7127021,43.4872841 L68.7175408,46.0252841 L67.6739924,43.0082045 C67.6675408,42.9248864 67.7449601,42.670125 67.796573,42.5034886 C68.0030247,41.8225227 68.3885085,40.5535227 67.2062505,39.7491818 C67.0207666,39.6226023 66.7449601,39.51525 66.398186,39.3822614 C65.898186,39.1883864 65.2127021,38.9240114 64.9078634,38.6067614 L64.8885085,38.5875341 L64.5256053,37.8969545 C64.5078634,37.8184432 64.548186,37.558875 64.5723795,37.3858295 C64.6788311,36.6792273 64.8756053,35.3637614 63.5739924,34.7356705 C63.3594763,34.6315227 63.048186,34.5642273 62.6578634,34.4809091 C62.1401214,34.3719545 61.4320569,34.2213409 61.0836698,33.9729886 L61.0401214,33.9441477 L60.5578634,33.3432955 C60.5272182,33.276 60.5110892,33.0420682 60.496573,32.870625 C60.480444,32.6623295 60.4610892,32.4283977 60.4159279,32.1864545 C60.196573,30.9478977 59.4159279,30.5585455 58.8159279,30.4511932 C58.580444,30.4047273 58.2062505,30.4271591 57.7288311,30.4624091 L57.4062505,30.4880455 C57.0175408,30.5232955 56.5433472,30.544125 56.2207666,30.5056705 L55.3159279,30.1035 L55.0756053,29.768625 C54.9497989,29.5715455 54.7933472,29.3296023 54.5933472,29.1084886 C54.1449601,28.5973636 53.5756053,28.3121591 52.9852827,28.3121591 C52.7046376,28.3121591 52.4207666,28.37625 52.1433472,28.499625 C51.7885085,28.6598523 51.3094763,29.0780455 50.9788311,29.3952955 L50.4110892,29.9160341 C50.230444,30.0730568 50.0675408,30.1900227 49.9191537,30.2765455 L49.8691537,30.3069886 L49.114315,30.4848409 C49.0256053,30.4848409 48.8175408,30.4239545 48.6352827,30.3694773 C48.4256053,30.3069886 48.1917343,30.2380909 47.9239924,30.1868182 C47.4997989,30.1179205 47.1385085,30.1339432 46.7788311,30.2396932 C46.346573,30.3790909 45.980444,30.6787159 45.7159279,31.1145341 C45.5868956,31.3420568 45.496573,31.6737273 45.3820569,32.0935227 C45.2433472,32.5966364 45.0707666,33.2135114 44.8352827,33.5628068 L44.1659279,34.104375 C44.0949601,34.1332159 43.8562505,34.1428295 43.680444,34.1492386 C43.4707666,34.15725 43.2449601,34.1668636 43.0223795,34.1973068 C41.7949601,34.3591364 41.3675408,35.0785568 41.2223795,35.6521705 C41.1659279,35.8764886 41.1627021,36.1761136 41.1562505,36.55425 C41.1497989,37.0846023 41.1401214,37.8104318 40.9546376,38.2045909 L40.9272182,38.2590682 L40.4272182,38.8134545 C40.3578634,38.8567159 40.096573,38.9143977 39.9223795,38.95125 C39.2239924,39.1018636 37.9223795,39.3806591 37.7852827,40.7954659 C37.7659279,41.0181818 37.8030247,41.3065909 37.8530247,41.6703068 C37.9256053,42.2006591 38.0207666,42.9248864 37.8901214,43.3462841" id="Fill-1077" fill="#E6A52E"></path>
                        <path d="M28.4014118,70.7852045 C28.4014118,53.6937614 39.3256053,35.6185227 52.8030247,35.6185227 C66.2788311,35.6185227 77.2046376,53.6937614 77.2046376,70.7852045 C77.2046376,87.87825 75.3062505,101.733102 52.8030247,101.733102 C28.4014118,101.733102 28.4014118,87.87825 28.4014118,70.7852045" id="Fill-1078" fill="#F1D2AC"></path>
                        <path d="M83.5320569,87.8205682 C83.5320569,81.4595455 81.6449601,77.9617841 73.9562505,75.8099318 C66.1949601,73.63725 54.0191537,72.7784318 46.8868956,75.3869318 C39.7578634,77.9954318 33.3191537,86.0805 30.9562505,89.5622386 C28.9788311,92.4719659 29.4207666,99.5347841 29.4207666,99.5347841 C29.4207666,105.895807 37.4433472,111.755318 43.848186,111.755318 L57.7756053,111.755318 C70.7336698,111.755318 77.0110892,105.775636 80.9352827,99.7991591 C83.230444,96.3062045 83.5320569,87.8205682 83.5320569,87.8205682" id="Fill-1079" fill="#775B35"></path>
                        <path d="M76.7820569,107.615045 C76.7820569,108.582818 77.5675408,109.363125 78.5385085,109.363125 C79.5127021,109.363125 80.298186,108.582818 80.298186,107.615045 C80.298186,106.648875 79.5127021,105.865364 78.5385085,105.865364 C77.5675408,105.865364 76.7820569,106.648875 76.7820569,107.615045 Z M64.9417343,109.363125 C64.9417343,111.297068 65.9368956,112.862489 67.164315,112.862489 C68.3901214,112.862489 69.3852827,111.297068 69.3852827,109.363125 C69.3852827,107.433989 68.3901214,105.865364 67.164315,105.865364 C65.9368956,105.865364 64.9417343,107.433989 64.9417343,109.363125 Z M48.4530247,111.790568 C48.2514118,112.458716 48.1401214,113.194159 48.1401214,113.964852 C48.1401214,115.083239 48.3756053,116.123114 48.780444,116.991545 L48.8368956,117.118125 L48.8691537,117.174205 C48.9433472,117.324818 49.0256053,117.46742 49.1078634,117.603614 C50.1207666,119.415784 51.0578634,121.019659 51.4401214,121.782341 C52.1062505,123.109023 52.8175408,121.758307 52.8175408,121.758307 L54.8159279,118.093909 L54.8272182,118.084295 C55.1723795,117.638864 55.4659279,117.110114 55.680444,116.51567 L55.9094763,116.097477 L55.9062505,115.780227 C56.046573,115.213023 56.1256053,114.599352 56.1256053,113.964852 C56.1256053,113.27908 56.0368956,112.620545 55.8756053,112.014886 L55.8707666,111.790568 L55.7159279,111.51017 C55.4836698,110.838818 55.1546376,110.245977 54.7530247,109.758886 L52.9062505,106.389307 C52.9062505,106.389307 52.2191537,104.772614 51.3401214,106.338034 C50.6707666,107.531727 49.5772182,109.4865 49.0997989,110.343716 L48.8949601,110.701023 L48.8546376,110.779534 C48.696573,111.09358 48.5627021,111.433261 48.4530247,111.790568 Z M35.6868956,109.363125 C35.6868956,111.297068 36.680444,112.862489 37.9078634,112.862489 C39.1352827,112.862489 40.1288311,111.297068 40.1288311,109.363125 C40.1288311,107.433989 39.1352827,105.865364 37.9078634,105.865364 C36.680444,105.865364 35.6868956,107.433989 35.6868956,109.363125 Z M24.7739924,107.615045 C24.7739924,108.582818 25.5594763,109.363125 26.530444,109.363125 C27.5046376,109.363125 28.2901214,108.582818 28.2901214,107.615045 C28.2901214,106.648875 27.5046376,105.865364 26.530444,105.865364 C25.5594763,105.865364 24.7739924,106.648875 24.7739924,107.615045 Z M18.3772182,118.279773 C18.3772182,117.916057 18.3772182,117.555545 18.3772182,117.19183 L18.4159279,117.130943 C18.4901214,116.743193 18.6868956,116.424341 18.9546376,116.147148 C19.4949601,115.594364 20.1497989,115.366841 20.9191537,115.44375 L21.1772182,115.435739 L21.214315,115.174568 C21.2756053,114.700295 21.3320569,114.22442 21.3885085,113.75175 C21.4627021,113.139682 21.5401214,112.522807 21.614315,111.909136 C21.6868956,111.314693 21.7578634,110.715443 21.8320569,110.116193 C21.9094763,109.513739 21.9836698,108.90808 22.0578634,108.30242 C22.1497989,107.549352 22.2368956,106.796284 22.3288311,106.043216 C22.4272182,105.258102 22.5239924,104.471386 22.6223795,103.686273 L22.6901214,103.364216 L22.9288311,103.33217 C23.1546376,103.311341 23.3756053,103.290511 23.598186,103.266477 C24.046573,103.224818 24.4917343,103.175148 24.9385085,103.133489 C25.3578634,103.09183 25.7820569,103.05658 26.1997989,103.018125 C26.6659279,102.974864 27.1256053,102.93 27.5901214,102.891545 C28.0933472,102.853091 28.598186,102.814636 29.1014118,102.776182 C29.898186,102.716898 30.6917343,102.652807 31.4852827,102.596727 C32.148186,102.555068 32.8110892,102.516614 33.4739924,102.481364 C34.3514118,102.428489 35.2288311,102.38042 36.1078634,102.337159 C37.0159279,102.292295 37.930444,102.253841 38.8433472,102.212182 C39.180444,102.197761 39.5239924,102.194557 39.8610892,102.180136 C40.5739924,102.156102 41.2868956,102.124057 42.0014118,102.103227 C42.7707666,102.079193 43.5417343,102.067977 44.314315,102.050352 C45.1191537,102.03433 45.9223795,102.015102 46.730444,102.002284 C47.5578634,101.991068 48.3901214,101.987864 49.2191537,101.984659 C50.514315,101.984659 51.8094763,101.987864 53.1030247,101.994273 C54.0594763,101.99908 55.014315,102.008693 55.9659279,102.015102 C56.3578634,102.019909 56.7497989,102.026318 57.1368956,102.037534 C57.8772182,102.050352 58.614315,102.067977 59.3546376,102.082398 C59.7175408,102.088807 60.0836698,102.093614 60.448186,102.103227 C61.2014118,102.124057 61.9562505,102.156102 62.7110892,102.180136 C63.614315,102.215386 64.5191537,102.247432 65.4223795,102.28108 C66.2191537,102.313125 67.0110892,102.34517 67.8078634,102.38042 C68.380444,102.404455 68.9546376,102.433295 69.5223795,102.460534 C70.2368956,102.498989 70.948186,102.540648 71.6627021,102.579102 C72.3385085,102.617557 73.0191537,102.656011 73.6997989,102.699273 C74.0062505,102.716898 74.3078634,102.737727 74.6159279,102.758557 C75.2046376,102.800216 75.7901214,102.841875 76.3788311,102.883534 C76.9320569,102.926795 77.4885085,102.962045 78.0433472,103.003705 C78.746573,103.059784 79.4497989,103.119068 80.1514118,103.178352 C80.7788311,103.231227 81.4062505,103.287307 82.0368956,103.343386 L82.2449601,103.381841 C82.3223795,104.194193 82.3691537,105.00975 82.4320569,105.822102 C82.496573,106.628045 82.5449601,107.433989 82.6046376,108.239932 C82.664315,109.052284 82.7272182,109.867841 82.7885085,110.680193 C82.8433472,111.486136 82.898186,112.290477 82.9610892,113.09642 C83.0239924,113.910375 83.0707666,114.721125 83.1449601,115.517455 L83.1852827,115.544693 L83.3336698,115.555909 C83.796573,115.559114 84.2159279,115.698511 84.5933472,115.961284 C85.0836698,116.300966 85.396573,116.764023 85.530444,117.345648 L85.6368956,117.587591 C85.6368956,117.768648 85.6368956,117.951307 85.6368956,118.132364 L85.5336698,118.347068 C85.2691537,119.558386 84.0707666,120.388364 82.764315,120.107966 C81.6110892,119.862818 80.7433472,118.74283 80.9868956,117.419352 C81.0917343,116.861761 81.3739924,116.406716 81.8191537,116.049409 L81.9723795,115.913216 C80.1578634,114.2805 78.3497989,112.655795 76.5449601,111.034295 C75.9659279,110.515159 74.8320569,109.363125 74.580444,110.334102 C74.4110892,110.984625 74.3627021,111.663989 74.2530247,112.333739 C74.148186,112.985864 74.0368956,113.633182 73.9320569,114.285307 C73.8239924,114.942239 73.7159279,115.600773 73.6078634,116.259307 C73.498186,116.921045 73.3885085,117.57958 73.2836698,118.238114 C73.1739924,118.896648 73.064315,119.555182 72.9594763,120.213716 C72.864315,120.808159 72.764315,121.401 72.6707666,121.997045 L72.6739924,122.122023 L72.8352827,122.130034 C73.5627021,122.174898 74.1852827,122.452091 74.6868956,122.976034 C75.3836698,123.708273 75.6175408,124.581511 75.3949601,125.557295 C75.0885085,126.912818 73.730444,127.946284 72.1159279,127.641852 C70.6772182,127.37267 69.5933472,125.946648 69.9207666,124.342773 C70.0578634,123.687443 70.396573,123.152284 70.914315,122.732489 L71.0933472,122.556239 L70.9562505,122.413636 C70.4949601,121.965 70.0320569,121.513159 69.5756053,121.061318 C68.7885085,120.290625 68.0014118,119.519932 67.2159279,118.749239 C66.4497989,117.992966 65.6820569,117.239898 64.9175408,116.48683 C64.280444,115.860341 63.6449601,115.229045 63.0078634,114.602557 C62.7659279,114.363818 61.8885085,114.318955 61.4868956,115.080034 C59.6110892,118.613045 54.4288311,128.46542 53.1110892,131.021045 C52.5385085,130.461852 52.0352827,130.237534 51.1820569,130.972977 C48.6433472,125.904989 45.8223795,120.263386 43.314315,115.243466 C42.9756053,114.575318 42.7868956,114.035352 41.6385085,114.942239 C38.9352827,117.074864 36.2691537,120.115977 33.8223795,122.535409 L33.7562505,122.62033 L33.9917343,122.807795 C34.880444,123.519205 35.2885085,124.768977 34.8497989,125.938636 C34.214315,127.617818 32.2756053,128.215466 30.8191537,127.385489 C29.7997989,126.805466 29.2320569,125.663045 29.4578634,124.461341 C29.7368956,122.984045 31.0368956,122.157273 32.2046376,122.189318 L32.4127021,122.166886 C31.9788311,118.581 31.5497989,115.00633 31.1175408,111.433261 C31.048186,110.842023 30.6852827,109.840602 29.5997989,110.576045 C27.1594763,112.231193 22.564315,116.097477 22.4272182,116.230466 L22.5788311,116.453182 C23.2530247,117.464216 23.0272182,118.819739 22.0659279,119.558386 C21.596573,119.915693 21.0675408,120.059898 20.4772182,120.031057 C19.5094763,119.982989 18.6530247,119.277989 18.4191537,118.339057 L18.3772182,118.279773 L18.3772182,118.279773 Z" id="Fill-1080" fill="#E6A52E"></path>
                        <path d="M22.5610892,101.707466 L22.4030247,101.707466 C22.4272182,101.036114 22.4707666,100.369568 22.5014118,99.704625 C22.530444,99.0380795 22.564315,98.3731364 22.6046376,97.7049886 C22.6433472,97.04325 22.664315,96.3767045 22.7127021,95.70375 L22.846573,95.6701023 C23.3836698,95.6172273 23.9191537,95.5643523 24.4546376,95.5082727 C24.8788311,95.4666136 25.298186,95.42175 25.7159279,95.3832955 C26.1578634,95.3400341 26.5949601,95.3015795 27.0320569,95.263125 C27.530444,95.2214659 28.0272182,95.1766023 28.5207666,95.1365455 C29.0239924,95.0948864 29.5320569,95.0564318 30.0352827,95.0227841 C30.646573,94.9763182 31.2594763,94.9346591 31.8723795,94.8881932 C32.1627021,94.8673636 32.4514118,94.8497386 32.7433472,94.8321136 C33.4288311,94.7936591 34.1175408,94.7552045 34.8014118,94.71675 C35.6417343,94.6718864 36.4772182,94.628625 37.3127021,94.5917727 C37.9675408,94.5597273 38.6239924,94.5340909 39.280444,94.5100568 C39.9675408,94.4828182 40.6546376,94.4539773 41.3417343,94.4331477 C41.6852827,94.4235341 42.0223795,94.4203295 42.3659279,94.4123182 C42.9852827,94.3978977 43.6094763,94.3802727 44.230444,94.3658523 C44.5723795,94.3562386 44.9110892,94.3498295 45.248186,94.346625 C46.480444,94.3322045 47.7062505,94.3209886 48.9368956,94.3145795 C49.948186,94.3033636 50.9594763,94.2921477 51.9756053,94.2969545 C53.2191537,94.3001591 54.464315,94.3145795 55.7078634,94.3322045 C56.5723795,94.3418182 57.4352827,94.3594432 58.296573,94.3802727 C59.0788311,94.3978977 59.8578634,94.4203295 60.6368956,94.4443636 C61.6127021,94.4748068 62.5949601,94.5068523 63.5707666,94.5421023 C64.3594763,94.5741477 65.146573,94.6045909 65.9320569,94.6398409 C66.9546376,94.6895114 67.9739924,94.7375795 68.9933472,94.7904545 C69.8030247,94.8321136 70.614315,94.8785795 71.4288311,94.9234432 C72.064315,94.9618977 72.7014118,95.0115682 73.3401214,95.0532273 C73.9288311,95.0916818 74.5175408,95.1269318 75.1030247,95.1685909 C75.6739924,95.2070455 76.2449601,95.2535114 76.8159279,95.298375 C77.314315,95.3368295 77.8094763,95.3752841 78.3030247,95.4137386 C78.7578634,95.4489886 79.2127021,95.4874432 79.6691537,95.5291023 C80.1578634,95.5707614 80.6449601,95.6204318 81.1320569,95.6652955 L81.2836698,95.6877273 L81.314315,95.9713295 C81.3433472,96.4888636 81.3675408,97.008 81.3917343,97.5303409 C81.4239924,98.1600341 81.4594763,98.7945341 81.4917343,99.4274318 C81.5256053,100.068341 81.5627021,100.712455 81.5933472,101.353364 L81.614315,101.725091 L81.4594763,101.763545 C80.796573,101.697852 80.1368956,101.627352 79.4788311,101.564864 C78.864315,101.503977 78.2546376,101.451102 77.6417343,101.396625 C76.9901214,101.335739 76.3368956,101.276455 75.6836698,101.220375 C75.1739924,101.178716 74.6578634,101.143466 74.148186,101.101807 C73.6014118,101.060148 73.0546376,101.016886 72.5078634,100.978432 C72.2191537,100.954398 71.930444,100.933568 71.6401214,100.915943 C70.9739924,100.874284 70.3159279,100.83583 69.6530247,100.797375 C68.898186,100.750909 68.1433472,100.706045 67.3885085,100.664386 C66.7110892,100.625932 66.0320569,100.593886 65.3514118,100.566648 C64.548186,100.528193 63.7433472,100.496148 62.9401214,100.464102 C62.2336698,100.440068 61.530444,100.419239 60.8239924,100.401614 C60.1917343,100.383989 59.5659279,100.366364 58.9336698,100.351943 C58.064315,100.331114 57.1933472,100.324705 56.3191537,100.30067 C54.2530247,100.247795 52.1868956,100.268625 50.1207666,100.260614 C49.5949601,100.260614 49.0739924,100.26542 48.5530247,100.27183 C47.5046376,100.28625 46.4578634,100.30067 45.414315,100.3215 C44.5933472,100.334318 43.7723795,100.359955 42.9497989,100.383989 C41.9627021,100.411227 40.9756053,100.446477 39.9917343,100.481727 C39.2256053,100.508966 38.4659279,100.544216 37.6997989,100.579466 C36.7739924,100.622727 35.846573,100.664386 34.9191537,100.715659 C33.9739924,100.771739 33.030444,100.83583 32.0885085,100.898318 C31.2659279,100.951193 30.448186,101.002466 29.6272182,101.063352 C28.9014118,101.116227 28.1707666,101.18192 27.4449601,101.241205 C26.9901214,101.279659 26.5352827,101.314909 26.080444,101.35817 C25.4772182,101.409443 24.8739924,101.47033 24.2723795,101.532818 C23.6997989,101.588898 23.1336698,101.651386 22.5610892,101.707466" id="Fill-1081" fill="#D28B2F"></path>
                        <path d="M26.530444,109.363125 C25.5594763,109.363125 24.7739924,108.582818 24.7739924,107.615045 C24.7739924,106.648875 25.5594763,105.865364 26.530444,105.865364 C27.5046376,105.865364 28.2901214,106.648875 28.2901214,107.615045 C28.2901214,108.582818 27.5046376,109.363125 26.530444,109.363125" id="Fill-1082" fill="#13A2A4"></path>
                        <path d="M37.9078634,112.862489 C36.680444,112.862489 35.6868956,111.297068 35.6868956,109.363125 C35.6868956,107.433989 36.680444,105.865364 37.9078634,105.865364 C39.1352827,105.865364 40.1288311,107.433989 40.1288311,109.363125 C40.1288311,111.297068 39.1352827,112.862489 37.9078634,112.862489" id="Fill-1083" fill="#E34E45"></path>
                        <path d="M48.1401214,135.932011 C46.9094763,134.91617 47.548186,134.586102 48.1401214,133.998068 C48.530444,133.610318 50.1352827,132.016057 51.1820569,130.972977 C51.280444,131.171659 51.3836698,131.371943 51.4820569,131.572227 L51.4997989,131.655545 L51.2917343,131.726045 C50.2239924,132.068932 49.498186,132.76592 49.1594763,133.834636 C48.6046376,135.59233 49.6917343,137.444557 51.5030247,137.857943 L51.8094763,137.928443 C52.0739924,137.928443 52.3417343,137.928443 52.6062505,137.928443 L52.6949601,137.888386 C53.6433472,137.787443 54.7707666,137.07283 55.2159279,135.826261 C55.8417343,134.068568 54.8272182,132.163466 53.0078634,131.690795 L52.7997989,131.631511 C52.8110892,131.605875 52.9207666,131.389568 53.1110892,131.021045 C54.048186,131.948761 55.3917343,133.28025 55.9094763,133.815409 C56.7417343,134.674227 57.3046376,134.733511 55.9094763,136.124284 C54.514315,137.515057 53.9627021,138.064636 53.3530247,138.65267 C52.2739924,139.69575 52.0352827,139.798295 51.0691537,138.841739 C50.4659279,138.244091 49.0852827,136.870943 48.1401214,135.932011" id="Fill-1084" fill="#E34E45"></path>
                        <path d="M48.780444,116.991545 C48.2207666,115.615193 48.8336698,110.942966 48.8546376,110.779534 L48.8949601,110.701023 C48.9368956,110.630523 49.0062505,110.50875 49.0997989,110.343716 C49.8256053,109.143614 50.914315,108.382534 52.1336698,108.382534 C53.1352827,108.382534 54.0562505,108.90167 54.7530247,109.758886 L55.7159279,111.51017 C55.7756053,111.675205 55.8272182,111.843443 55.8756053,112.014886 L55.9062505,115.780227 C55.846573,116.031784 55.7723795,116.280136 55.680444,116.51567 L54.8272182,118.084295 L54.8159279,118.093909 C54.1078634,118.997591 53.1627021,119.543966 52.1336698,119.543966 C50.9239924,119.543966 49.8401214,118.7925 49.1078634,117.603614 L48.8691537,117.174205 L48.780444,116.991545" id="Fill-1086" fill="#13A2A4"></path>
                        <path d="M51.5030247,137.857943 C49.6917343,137.444557 48.6046376,135.59233 49.1594763,133.834636 C49.498186,132.76592 50.2239924,132.068932 51.2917343,131.726045 L51.4997989,131.655545 L51.4820569,131.572227 C51.3836698,131.371943 51.280444,131.171659 51.1820569,130.972977 C52.0352827,130.237534 52.5385085,130.461852 53.1110892,131.021045 C52.9207666,131.389568 52.8110892,131.605875 52.7997989,131.631511 L53.0078634,131.690795 C54.8272182,132.163466 55.8417343,134.068568 55.2159279,135.826261 C54.7707666,137.07283 53.6433472,137.787443 52.6949601,137.888386 L52.6062505,137.928443 C52.3417343,137.928443 52.0739924,137.928443 51.8094763,137.928443 L51.5030247,137.857943" id="Fill-1089" fill="#E34E45"></path>
                        <path d="M67.164315,112.862489 C65.9368956,112.862489 64.9417343,111.297068 64.9417343,109.363125 C64.9417343,107.433989 65.9368956,105.865364 67.164315,105.865364 C68.3901214,105.865364 69.3852827,107.433989 69.3852827,109.363125 C69.3852827,111.297068 68.3901214,112.862489 67.164315,112.862489" id="Fill-1093" fill="#E34E45"></path>
                        <path d="M78.5385085,109.363125 C77.5675408,109.363125 76.7820569,108.582818 76.7820569,107.615045 C76.7820569,106.648875 77.5675408,105.865364 78.5385085,105.865364 C79.5127021,105.865364 80.298186,106.648875 80.298186,107.615045 C80.298186,108.582818 79.5127021,109.363125 78.5385085,109.363125" id="Fill-1094" fill="#13A2A4"></path>
                        <path d="M9.31592789,53.2771705 C9.14979885,53.2771705 8.9723795,53.2851818 8.78850853,53.2996023 C6.59012144,53.4950795 2.93366982,54.8746364 3.12721821,61.9470682 C3.12721821,61.9470682 3.11592789,63.0542386 3.92560531,62.339625 C4.73528273,61.6234091 6.46754079,60.5162386 8.48528273,59.7551591 C9.19173434,59.4891818 9.76754079,59.2248068 10.2562505,58.8947386 C9.3739924,61.86375 8.5723795,63.9435 8.33689563,64.3504773 C7.61915369,65.60025 8.33689563,67.3691591 8.33689563,67.3691591 L9.60947627,67.0583182 C9.7239924,65.7268295 11.4288311,59.9458295 12.7949601,54.3170455 C12.8562505,54.0975341 12.8917343,53.9533295 12.9062505,53.8491818 C13.3062505,52.1860227 13.6691537,50.5468977 13.948186,49.0535795 C15.1127021,53.6360795 16.914315,55.2495682 20.9546376,57.1610795 C25.1562505,59.1462955 30.1675408,63.2320909 30.2175408,63.2721477 C30.2175408,63.2721477 30.7933472,64.2319091 31.0336698,62.9629091 C33.3820569,50.4828068 25.8707666,46.688625 21.4239924,45.7913523 C21.0562505,45.7176477 20.7014118,45.6599659 20.3594763,45.6183068 C17.3885085,45.2561932 15.4675408,46.0445114 14.5368956,46.5940909 C14.4901214,46.3938068 14.4449601,46.2191591 14.4078634,46.0621364 C14.9772182,40.8291136 15.064315,37.7944091 14.4094763,35.0016477 L12.3723795,35.0016477 C12.4449601,35.3365227 12.5110892,35.6633864 12.5885085,36.0062727 C13.8046376,41.3146023 12.8852827,48.1883523 11.5852827,53.8459773 C11.0756053,53.5511591 10.3320569,53.2771705 9.31592789,53.2771705" id="Fill-1095" fill="#C5C158"></path>
                        <path d="M8.48528273,68.2327841 C8.48528273,68.2327841 16.1433472,77.1077727 4.53044402,84.652875 C4.24012144,84.8419432 4.24012144,84.8419432 4.24012144,84.8419432 L5.60947627,85.0470341 C5.60947627,85.0470341 0.0562504676,88.5191591 0.398185951,86.8800341 C0.741734339,85.2409091 1.78205692,81.88575 0.398185951,78.1396364 C-0.98245921,74.3919205 1.11270208,66.3164659 8.48528273,68.2327841" id="Fill-1096" fill="#E34E45"></path>
                        <path d="M21.3917343,87.87825 C22.7078634,90.1951364 8.84012144,84.7185682 7.44657305,67.9427727 C7.44657305,67.9427727 15.2320569,67.5245795 19.0030247,72.2705114 C19.0030247,72.2705114 22.5385085,75.1449886 20.2610892,80.7609545 C20.2610892,80.7609545 20.0723795,85.5613636 21.3917343,87.87825" id="Fill-1097" fill="#E34E45"></path>
                        <path d="M10.2030247,75.2859886 C10.2030247,75.2859886 18.6256053,82.1341023 12.7175408,88.8780682 C10.6739924,91.6996705 10.7433472,93.3452045 9.57560531,92.6241818 C8.40625047,91.9047614 4.41592789,91.9736591 3.16431498,86.8800341 C2.89496014,85.3979318 1.65625047,76.3018295 10.2030247,75.2859886" id="Fill-1098" fill="#E34E45"></path>
                        <path d="M13.9175408,69.988875 C13.9175408,69.988875 20.1352827,70.1154545 20.0078634,63.2481136 C20.0175408,62.9436818 19.7110892,62.6873182 19.1110892,62.7738409 C18.4852827,62.8619659 17.5256053,63.1087159 16.2401214,63.7480227 C16.2401214,63.7480227 16.7191537,62.7177614 16.4094763,61.4487614 C16.2997989,61.0033295 15.5885085,60.5434773 15.2546376,61.22925 C14.5675408,62.6520682 13.0820569,64.9465227 10.4562505,65.6210795 C6.55786337,66.6208977 4.40625047,66.8307955 5.48205692,68.5356136 C6.55786337,70.2404318 9.21108918,69.9872727 13.9175408,69.988875" id="Fill-1099" fill="#E34E45"></path>
                        <polygon id="Fill-1100" fill="#FFFFFF" points="6.06270208 43.6138636 25.3159279 43.6138636 25.3159279 38.8471023 6.06270208 38.8471023"></polygon>
                        <polygon id="Fill-1101" fill="#E34E45" points="6.06270208 38.8471023 25.3159279 38.8471023 25.3159279 5.04075 6.06270208 5.04075"></polygon>
                    </g>
                </g>
            </g>
        </g>
    </g>
</svg>