<?xml version="1.0" encoding="UTF-8"?>
<svg width="242px" height="340px" viewBox="0 0 242 340" version="1.1" xmlns="http://www.w3.org/2000/svg" xmlns:xlink="http://www.w3.org/1999/xlink">
    <title>hearts/2</title>
    <g id="Page-1" stroke="none" stroke-width="1" fill="none" fill-rule="evenodd">
        <g id="Card-deck" transform="translate(-40.000000, -825.000000)">
            <g id="hearts/2" transform="translate(40.000000, 825.000000)">
                <polygon id="BG" fill="#FFFFFF" points="0 0 242 0 242 340 0 340"></polygon>
                <g id="Symbol-/-Coeur" transform="translate(104.000000, 236.000000)" fill="#DB362A">
                    <path d="M23.5653637,0.649309697 C18.6592511,0.738687308 17.6839179,7.35858899 17.6839179,7.35858899 C17.6839179,7.35858899 16.5517749,0.738687308 11.6456623,0.649309697 C6.73942998,0.559790217 3.72018248,5.65885383 5.3808105,11.026334 C7.04131882,16.3936723 8.69584203,17.601405 11.302955,21.4927359 C13.9099483,25.3842087 17.7028308,32.1159034 17.6839179,33.7037037 C17.6651247,32.1159034 21.300958,25.3842087 23.9080709,21.4927359 C26.5151839,17.601405 28.1697071,16.3936723 29.8302155,11.026334 C31.4907238,5.65885383 28.471596,0.559790217 23.5653637,0.649309697" id="Coeur"></path>
                </g>
                <g id="Symbol-/-Coeur" transform="translate(104.000000, 70.000000)" fill="#DB362A">
                    <path d="M23.5653637,0.649309697 C18.6592511,0.738687308 17.6839179,7.35858899 17.6839179,7.35858899 C17.6839179,7.35858899 16.5517749,0.738687308 11.6456623,0.649309697 C6.73942998,0.559790217 3.72018248,5.65885383 5.3808105,11.026334 C7.04131882,16.3936723 8.69584203,17.601405 11.302955,21.4927359 C13.9099483,25.3842087 17.7028308,32.1159034 17.6839179,33.7037037 C17.6651247,32.1159034 21.300958,25.3842087 23.9080709,21.4927359 C26.5151839,17.601405 28.1697071,16.3936723 29.8302155,11.026334 C31.4907238,5.65885383 28.471596,0.559790217 23.5653637,0.649309697" id="Coeur"></path>
                </g>
                <g id="Small-Carreau" transform="translate(14.000000, 62.000000)" fill="#DB362A">
                    <g id="Symbol-/-Coeur">
                        <path d="M14.9621357,0.410188466 C11.8471435,0.466650991 11.2278844,4.648642 11.2278844,4.648642 C11.2278844,4.648642 10.5090634,0.466650991 7.39407129,0.410188466 C4.27900316,0.353636318 2.36202062,3.57486818 3.41638762,6.96566686 C4.47067862,10.3563759 5.52116955,11.119337 7.17647937,13.5776078 C8.8317132,16.0359682 11.2398926,20.2885822 11.2278844,21.2916434 C11.2159522,20.2885822 13.5244178,16.0359682 15.1797276,13.5776078 C16.8350374,11.119337 17.8855283,10.3563759 18.9398193,6.96566686 C19.9941103,3.57486818 18.0772038,0.353636318 14.9621357,0.410188466" id="Coeur"></path>
                    </g>
                    <g id="Symbol-/-Coeur" transform="translate(202.888889, 206.944724) rotate(180.000000) translate(-202.888889, -206.944724) translate(191.777778, 195.889447)">
                        <path d="M14.9621357,0.410188466 C11.8471435,0.466650991 11.2278844,4.648642 11.2278844,4.648642 C11.2278844,4.648642 10.5090634,0.466650991 7.39407129,0.410188466 C4.27900316,0.353636318 2.36202062,3.57486818 3.41638762,6.96566686 C4.47067862,10.3563759 5.52116955,11.119337 7.17647937,13.5776078 C8.8317132,16.0359682 11.2398926,20.2885822 11.2278844,21.2916434 C11.2159522,20.2885822 13.5244178,16.0359682 15.1797276,13.5776078 C16.8350374,11.119337 17.8855283,10.3563759 18.9398193,6.96566686 C19.9941103,3.57486818 18.0772038,0.353636318 14.9621357,0.410188466" id="Coeur"></path>
                    </g>
                </g>
                <g id="Letter-/-Rouge" transform="translate(10.000000, 8.000000)" fill="#DB362A" font-family="Helvetica" font-size="40" font-weight="normal">
                    <text id="A">
                        <tspan x="0" y="29">2</tspan>
                    </text>
                </g>
                <g id="Letter-/-Rouge" transform="translate(215.000000, 310.000000) rotate(180.000000) translate(-215.000000, -310.000000) translate(202.000000, 286.000000)" fill="#DB362A" font-family="Helvetica" font-size="40" font-weight="normal">
                    <text id="A">
                        <tspan x="0" y="29">2</tspan>
                    </text>
                </g>
            </g>
        </g>
    </g>
</svg>