<?xml version="1.0" encoding="UTF-8"?>
<svg width="242px" height="340px" viewBox="0 0 242 340" version="1.1" xmlns="http://www.w3.org/2000/svg" xmlns:xlink="http://www.w3.org/1999/xlink">
    <title>diamond/j</title>
    <g id="Page-1" stroke="none" stroke-width="1" fill="none" fill-rule="evenodd">
        <g id="Card-deck" transform="translate(-2420.000000, -60.000000)">
            <g id="diamond/j" transform="translate(2420.000000, 60.000000)">
                <polygon id="BG" fill="#FFFFFF" points="0 0 242 0 242 340 0 340"></polygon>
                <g id="Small-Carreau" transform="translate(14.000000, 62.000000)" fill="#DB362A">
                    <g id="Symbol-/-Carreau">
                        <polygon id="Carreau" points="0 10.8824871 11.1111111 22.1105528 22.2222222 10.8824871 11.1111111 -0.345477387"></polygon>
                    </g>
                    <g id="Symbol-/-Carreau" transform="translate(191.777778, 195.889447)">
                        <polygon id="Carreau" points="0 10.8824871 11.1111111 22.1105528 22.2222222 10.8824871 11.1111111 -0.345477387"></polygon>
                    </g>
                </g>
                <g id="Letter-/-Rouge" transform="translate(10.000000, 8.000000)" fill="#DB362A" font-family="Helvetica" font-size="40" font-weight="normal">
                    <text id="A">
                        <tspan x="0" y="29">J</tspan>
                    </text>
                </g>
                <g id="Letter-/-Rouge" transform="translate(202.000000, 310.000000) rotate(180.000000) translate(-202.000000, -310.000000) translate(176.000000, 286.000000)" fill="#DB362A" font-family="Helvetica" font-size="40" font-weight="normal">
                    <text id="A">
                        <tspan x="0" y="29">J</tspan>
                    </text>
                </g>
                <g id="Jack" transform="translate(68.000000, 30.000000)">
                    <g id="Valet-Bot" transform="translate(0.000000, 139.000000)">
                        <path d="M57.3528358,53.9847241 C79.945791,53.9847241 99.0972537,28.7586207 101.502269,4.96245977 L14.4752239,4.96245977 C16.7319403,28.7586207 34.7647164,53.9847241 57.3528358,53.9847241" id="Fill-1187" fill="#E34E45"></path>
                        <path d="M101.758567,0 C82.2744251,0 50.4380164,0 6.24934098,0 L5.87009564,4.96245977 L101.47947,4.96245977 C101.662024,3.29605747 101.758567,1.64243678 101.758567,0 Z" id="Fill-1188" fill="#775B35"></path>
                        <path d="M36.3750448,43.4095402 C36.3750448,36.14 45.6711045,30.2412874 57.1384478,30.2412874 C68.605791,30.2412874 77.9018507,36.14 77.9018507,43.4095402 C77.9018507,50.6838736 68.605791,56.5809885 57.1384478,56.5809885 C45.6711045,56.5809885 36.3750448,50.6838736 36.3750448,43.4095402" id="Fill-1189" fill="#775B35"></path>
                        <path d="M5.83361194,48.2873218 C5.83361194,54.0853793 10.5759403,58.7842184 16.4256716,58.7842184 C22.275403,58.7842184 27.0161194,54.0853793 27.0161194,48.2873218 L27.0161194,47.2695862 L5.83361194,47.2695862 L5.83361194,48.2873218" id="Fill-1190" fill="#F1D2AC"></path>
                        <polygon id="Fill-1191" fill="#775B35" points="5.83361194 47.8719195 27.0161194 47.8719195 27.0161194 42.6362529 5.83361194 42.6362529"></polygon>
                        <polygon id="Fill-1192" fill="#E34E45" points="5.83361194 42.6362529 27.0161194 42.6362529 27.0161194 4.96245977 5.83361194 4.96245977"></polygon>
                        <path d="M22.7589851,78.6724023 C22.7589851,58.8912644 38.3254925,37.9709655 57.5253134,37.9709655 C76.7267463,37.9709655 92.2932537,58.8912644 92.2932537,78.6724023 C92.2932537,98.4519425 89.586806,117.915138 57.5253134,117.915138 C22.7589851,117.915138 22.7589851,98.4519425 22.7589851,78.6724023" id="Fill-1195" fill="#F1D2AC"></path>
                        <path d="M92.2932537,78.6724023 C81.0306269,79.9633448 74.6441194,92.574 69.9872239,96.0841494 C66.744,98.5270345 64.6194627,97.9278966 62.5755224,96.4580115 C55.3798209,91.2846552 39.879403,84.913023 35.341791,83.1124138 C30.8041791,81.3118046 31.6649552,83.368046 28.0558209,83.9895517 C24.4466866,84.6126552 23.7390448,76.2966207 22.7589851,76.4244368 C19.926806,76.7967011 21.3066269,86.2614828 21.6177313,90.5417241 C22.7589851,99.3083103 28.0896716,122.551667 57.5446567,122.551667 C87.0012537,122.551667 92.7317015,95.4322874 93.5134925,90.1614713 C94.2904478,84.8906552 96.7228657,78.1627356 92.2932537,78.6724023" id="Fill-1196" fill="#775B35"></path>
                        <path d="M11.3109851,64.9417586 L20.2685373,64.9417586 C20.2685373,64.9417586 20.2685373,101.784747 20.2685373,108.709184 C20.2685373,114.032724 17.8619104,137.509345 15.5004179,137.509345 C13.1405373,137.509345 11.3109851,113.786678 11.3109851,108.928069 C11.3109851,102.474954 11.3109851,64.9417586 11.3109851,64.9417586" id="Fill-1197" fill="#CCCCCC"></path>
                        <path d="M10.9386269,45.7006437 C10.9386269,43.0324828 13.1244179,40.8644023 15.821194,40.8644023 C18.5179701,40.8644023 20.7021493,43.0324828 20.7021493,45.7006437 L20.7021493,57.3718506 C20.7021493,60.0416092 18.5179701,62.208092 15.821194,62.208092 C13.1244179,62.208092 10.9386269,60.0416092 10.9386269,57.3718506 L10.9386269,45.7006437" id="Fill-1198" fill="#775B35"></path>
                        <path d="M0,61.5370575 C0,58.9567701 2.11164179,56.8653793 4.71492537,56.8653793 L26.9242388,56.8653793 C29.5307463,56.8653793 31.6407761,58.9567701 31.6407761,61.5370575 C31.6407761,64.1173448 29.5307463,66.2087356 26.9242388,66.2087356 L4.71492537,66.2087356 C2.11164179,66.2087356 0,64.1173448 0,61.5370575" id="Fill-1199" fill="#EFA000"></path>
                        <path d="M10.3325373,43.415931 C10.3325373,40.4106552 12.7891343,37.9773563 15.821194,37.9773563 C18.8516418,37.9773563 21.3066269,40.4106552 21.3066269,43.415931 C21.3066269,46.4180115 18.8516418,48.852908 15.821194,48.852908 C12.7891343,48.852908 10.3325373,46.4180115 10.3325373,43.415931" id="Fill-1200" fill="#EFA000"></path>
                    </g>
                    <g id="Valet-Tom" transform="translate(57.000000, 70.000000) rotate(180.000000) translate(-57.000000, -70.000000) translate(6.000000, 1.000000)">
                        <path d="M57.3528358,53.9847241 C79.945791,53.9847241 99.0972537,28.7586207 101.502269,4.96245977 L14.4752239,4.96245977 C16.7319403,28.7586207 34.7647164,53.9847241 57.3528358,53.9847241" id="Fill-1187" fill="#E34E45"></path>
                        <path d="M101.758567,0 C82.1488761,0 50.3064343,0 6.2312416,0 L5.85473882,4.96245977 L101.477672,4.96245977 C101.661402,3.29605747 101.758567,1.64243678 101.758567,0 Z" id="Fill-1188" fill="#775B35"></path>
                        <path d="M36.3750448,43.4095402 C36.3750448,36.14 45.6711045,30.2412874 57.1384478,30.2412874 C68.605791,30.2412874 77.9018507,36.14 77.9018507,43.4095402 C77.9018507,50.6838736 68.605791,56.5809885 57.1384478,56.5809885 C45.6711045,56.5809885 36.3750448,50.6838736 36.3750448,43.4095402" id="Fill-1189" fill="#775B35"></path>
                        <path d="M5.83361194,48.2873218 C5.83361194,54.0853793 10.5759403,58.7842184 16.4256716,58.7842184 C22.275403,58.7842184 27.0161194,54.0853793 27.0161194,48.2873218 L27.0161194,47.2695862 L5.83361194,47.2695862 L5.83361194,48.2873218" id="Fill-1190" fill="#F1D2AC"></path>
                        <polygon id="Fill-1191" fill="#775B35" points="5.83361194 47.8719195 27.0161194 47.8719195 27.0161194 42.6362529 5.83361194 42.6362529"></polygon>
                        <polygon id="Fill-1192" fill="#E34E45" points="5.83361194 42.6362529 27.0161194 42.6362529 27.0161194 4.96245977 5.83361194 4.96245977"></polygon>
                        <path d="M22.7589851,78.6724023 C22.7589851,58.8912644 38.3254925,37.9709655 57.5253134,37.9709655 C76.7267463,37.9709655 92.2932537,58.8912644 92.2932537,78.6724023 C92.2932537,98.4519425 89.586806,117.915138 57.5253134,117.915138 C22.7589851,117.915138 22.7589851,98.4519425 22.7589851,78.6724023" id="Fill-1195" fill="#F1D2AC"></path>
                        <path d="M92.2932537,78.6724023 C81.0306269,79.9633448 74.6441194,92.574 69.9872239,96.0841494 C66.744,98.5270345 64.6194627,97.9278966 62.5755224,96.4580115 C55.3798209,91.2846552 39.879403,84.913023 35.341791,83.1124138 C30.8041791,81.3118046 31.6649552,83.368046 28.0558209,83.9895517 C24.4466866,84.6126552 23.7390448,76.2966207 22.7589851,76.4244368 C19.926806,76.7967011 21.3066269,86.2614828 21.6177313,90.5417241 C22.7589851,99.3083103 28.0896716,122.551667 57.5446567,122.551667 C87.0012537,122.551667 92.7317015,95.4322874 93.5134925,90.1614713 C94.2904478,84.8906552 96.7228657,78.1627356 92.2932537,78.6724023" id="Fill-1196" fill="#775B35"></path>
                        <path d="M11.3109851,64.9417586 L20.2685373,64.9417586 C20.2685373,64.9417586 20.2685373,101.784747 20.2685373,108.709184 C20.2685373,114.032724 17.8619104,137.509345 15.5004179,137.509345 C13.1405373,137.509345 11.3109851,113.786678 11.3109851,108.928069 C11.3109851,102.474954 11.3109851,64.9417586 11.3109851,64.9417586" id="Fill-1197" fill="#CCCCCC"></path>
                        <path d="M10.9386269,45.7006437 C10.9386269,43.0324828 13.1244179,40.8644023 15.821194,40.8644023 C18.5179701,40.8644023 20.7021493,43.0324828 20.7021493,45.7006437 L20.7021493,57.3718506 C20.7021493,60.0416092 18.5179701,62.208092 15.821194,62.208092 C13.1244179,62.208092 10.9386269,60.0416092 10.9386269,57.3718506 L10.9386269,45.7006437" id="Fill-1198" fill="#775B35"></path>
                        <path d="M0,61.5370575 C0,58.9567701 2.11164179,56.8653793 4.71492537,56.8653793 L26.9242388,56.8653793 C29.5307463,56.8653793 31.6407761,58.9567701 31.6407761,61.5370575 C31.6407761,64.1173448 29.5307463,66.2087356 26.9242388,66.2087356 L4.71492537,66.2087356 C2.11164179,66.2087356 0,64.1173448 0,61.5370575" id="Fill-1199" fill="#EFA000"></path>
                        <path d="M10.3325373,43.415931 C10.3325373,40.4106552 12.7891343,37.9773563 15.821194,37.9773563 C18.8516418,37.9773563 21.3066269,40.4106552 21.3066269,43.415931 C21.3066269,46.4180115 18.8516418,48.852908 15.821194,48.852908 C12.7891343,48.852908 10.3325373,46.4180115 10.3325373,43.415931" id="Fill-1200" fill="#EFA000"></path>
                    </g>
                </g>
            </g>
        </g>
    </g>
</svg>