<?xml version="1.0" encoding="UTF-8"?>
<svg width="242px" height="340px" viewBox="0 0 242 340" version="1.1" xmlns="http://www.w3.org/2000/svg" xmlns:xlink="http://www.w3.org/1999/xlink">
    <title>diamond/k</title>
    <g id="Page-1" stroke="none" stroke-width="1" fill="none" fill-rule="evenodd">
        <g id="Card-deck" transform="translate(-2952.000000, -60.000000)">
            <g id="diamond/k" transform="translate(2952.000000, 60.000000)">
                <polygon id="BG" fill="#FFFFFF" points="0 0 242 0 242 340 0 340"></polygon>
                <g id="Small-Carreau" transform="translate(14.000000, 58.000000)" fill="#DB362A">
                    <g id="Symbol-/-Carreau">
                        <polygon id="Carreau" points="0 10.8824871 11.1111111 22.1105528 22.2222222 10.8824871 11.1111111 -0.345477387"></polygon>
                    </g>
                    <g id="Symbol-/-Carreau" transform="translate(191.777778, 195.889447)">
                        <polygon id="Carreau" points="0 10.8824871 11.1111111 22.1105528 22.2222222 10.8824871 11.1111111 -0.345477387"></polygon>
                    </g>
                </g>
                <g id="Letter-/-Rouge" transform="translate(10.000000, 4.000000)" fill="#DB362A" font-family="Helvetica" font-size="40" font-weight="normal">
                    <text id="A">
                        <tspan x="0" y="29">K</tspan>
                    </text>
                </g>
                <g id="Letter-/-Rouge" transform="translate(202.000000, 306.000000) rotate(180.000000) translate(-202.000000, -306.000000) translate(176.000000, 282.000000)" fill="#DB362A" font-family="Helvetica" font-size="40" font-weight="normal">
                    <text id="A">
                        <tspan x="0" y="29">K</tspan>
                    </text>
                </g>
                <g id="King" transform="translate(74.000000, 28.000000)">
                    <g id="King-Bot" transform="translate(0.000000, 141.000000)">
                        <path d="M51.1728,49.0414368 C71.544,49.0414368 88.8128,26.1240115 90.9824,4.50391954 L12.5056,4.50391954 C14.5424,26.1240115 30.8016,49.0414368 51.1728,49.0414368" id="Fill-1138" fill="#E34E45"></path>
                        <path d="M91.2144,0 C64.6889606,0 44.0570892,0 4.7152,0 C4.7152,0.992704981 4.7152,2.49401149 4.7152,4.50391954 L90.9601402,4.50391954 C91.1267242,2.99568966 91.2144,1.48905747 91.2144,0 Z" id="Fill-1139" fill="#AA3730"></path>
                        <path d="M4.7152,43.8664828 C4.7152,49.1325057 8.992,53.4031609 14.2656,53.4031609 C19.5376,53.4031609 23.8144,49.1325057 23.8144,43.8664828 L23.8144,42.9430115 L4.7152,42.9430115 L4.7152,43.8664828" id="Fill-1141" fill="#F1D2AC"></path>
                        <polygon id="Fill-1142" fill="#AA3730" points="4.7152 43.4878276 23.8144 43.4878276 23.8144 38.733069 4.7152 38.733069"></polygon>
                        <polygon id="Fill-1143" fill="#E34E45" points="4.7152 38.733069 23.8144 38.733069 23.8144 4.50391954 4.7152 4.50391954"></polygon>
                        <path d="M20.3264,72.1937241 C20.3264,53.3424483 34.36,33.4047356 51.6736,33.4047356 C68.9888,33.4047356 83.024,53.3424483 83.024,72.1937241 C83.024,91.0481954 80.5872,106.328609 51.6736,106.328609 C20.3264,106.328609 20.3264,91.0481954 20.3264,72.1937241" id="Fill-1146" fill="#F1D2AC"></path>
                        <path d="M83.1168,68.9807471 C82.3008,68.9807471 81.2032,70.0799655 80.1952,72.6282989 C78.4576,77.0251724 71.3136,81.0401954 67.1152,84.3857816 C64.192,86.7168276 62.328,86.0633678 60.4288,84.7436667 C49.392,77.0762989 34.792,78.2985402 27.5136,76.9564713 C22.1376,75.9658966 23.2256,70.2557126 20.672,70.6104023 C18.1152,70.965092 17.84,77.776092 18.7488,82.9654253 C20.704,89.3801954 21.5696,95.8093448 27.6432,100.410724 C34.424,105.548931 43.408,108.566989 51.6928,108.566989 C59.9392,108.566989 68.9792,105.847701 75.4832,100.682333 C81.2528,96.1033218 83.4224,87.6259195 84.1264,82.6011494 C84.8288,77.5795747 87.96,69.7588276 83.1168,68.9807471" id="Fill-1147" fill="#775B35"></path>
                        <path d="M36.4608,44.4097011 C36.4608,39.801931 39.2128,36.0665057 42.6048,36.0665057 C45.7536,36.0665057 48.3408,39.2762874 48.7056,43.4143333 L48.7104,43.4271149 C48.8752,45.3347701 50.1664,46.8254253 51.7536,46.8254253 C53.1296,46.8254253 54.2848,45.6958506 54.6736,44.1492759 L54.6864,44.1317011 L54.688,44.094954 C54.7344,43.9000345 54.768,43.7035172 54.7904,43.5006092 L54.8064,43.4398966 C55.1616,39.2906667 57.7568,36.0665057 60.9088,36.0665057 C64.304,36.0665057 67.056,39.801931 67.056,44.4097011 C67.056,44.7564023 67.056,46.1048621 67.056,46.4499655 C67.056,49.0845747 66.1536,51.4284023 64.7504,52.9558046 L64.7168,53.0420805 L64.4512,53.2625632 C63.4496,54.2227816 62.9104,54.7324483 60.9088,54.7947586 C58.9072,54.857069 55.7392,52.82 55.52,52.756092 C55.1776,52.6202874 54.4816,52.2735862 53.9936,53.7738276 C53.528,54.8666552 52.6672,55.6111839 51.6752,55.6111839 C50.912,55.6111839 50.2272,55.1734138 49.7376,54.4800115 L49.7312,54.4768161 L49.6528,54.3394138 C49.5584,54.194023 49.472,54.0438391 49.3968,53.8792759 C49.112,53.4287241 48.608,52.8711264 47.6944,52.7544943 C46.1696,52.5547816 46,54.4768161 42.6048,54.4768161 C39.2128,54.4768161 36.4608,50.7397931 36.4608,46.132023 C36.4608,45.8396437 36.4608,44.7004828 36.4608,44.4097011 Z M30.3696,34.285069 L30.3664,34.2818736 C30.3664,34.2818736 30.3712,34.4176782 30.3824,34.6477471 L30.3952,34.9065747 C30.5696,38.1131609 31.7136,52.9717816 38,57.1034368 C38.344,57.3798391 38.7056,57.6338736 39.1168,57.8224023 C39.4416,57.9725862 40.408,58.4247356 41.3008,58.7027356 C48.6464,61.7447586 57.8368,62.764092 64.9536,57.530023 L65.0528,57.4517356 C65.656,57.0602989 66.1808,56.5618161 66.6448,56.0106092 C72.9392,49.2858851 72.8768,35.6047701 72.8768,35.6047701 L72.8752,35.6047701 C72.9504,35.1430345 72.992,34.6094023 72.992,33.991092 C72.992,24.2882529 63.448,16.4211724 51.6752,16.4211724 C39.9024,16.4211724 30.36,24.2882529 30.36,33.991092 L30.3696,34.285069 L30.3696,34.285069 Z" id="Fill-1148" fill="#775B35"></path>
                        <path d="M75.704,106.349379 C75.704,107.312793 76.4848,108.092471 77.4496,108.092471 C78.4144,108.092471 79.1936,107.312793 79.1936,106.349379 C79.1936,105.385966 78.4144,104.603092 77.4496,104.603092 C76.4848,104.603092 75.704,105.385966 75.704,106.349379 Z M63.96,108.092471 C63.96,110.019299 64.9472,111.580253 66.1632,111.580253 C67.3808,111.580253 68.3664,110.019299 68.3664,108.092471 C68.3664,106.168839 67.3808,104.603092 66.1632,104.603092 C64.9472,104.603092 63.96,106.168839 63.96,108.092471 Z M47.6032,110.516184 C47.4032,111.17923 47.2928,111.912575 47.2928,112.681069 C47.2928,113.794667 47.5264,114.831575 47.928,115.697529 L47.984,115.823747 L48.016,115.879667 C48.0896,116.029851 48.1696,116.173644 48.2544,116.309448 C49.2576,118.118046 50.1888,119.718943 50.5648,120.476253 C51.2256,121.799149 51.936,120.452287 51.936,120.452287 L53.9264,116.783966 L53.9296,116.78077 C54.272,116.341402 54.56,115.814161 54.7728,115.226207 L55,114.807609 L54.9968,114.489667 C55.136,113.92408 55.2128,113.313759 55.2128,112.681069 C55.2128,111.997253 55.1264,111.340598 54.9648,110.735069 L54.9616,110.516184 L54.8112,110.242977 C54.5808,109.565552 54.2512,108.968011 53.8496,108.479115 L52.0208,105.127138 C52.0208,105.127138 51.3376,103.51346 50.4704,105.074414 C49.8064,106.266299 48.7184,108.213897 48.2432,109.070264 L48.24,109.076655 L48.1456,109.241218 L48.0192,109.468092 L48.0016,109.500046 L48.0016,109.506437 C47.8448,109.821184 47.712,110.159897 47.6032,110.516184 Z M34.9392,108.092471 C34.9392,110.019299 35.9264,111.580253 37.1424,111.580253 C38.36,111.580253 39.3456,110.019299 39.3456,108.092471 C39.3456,106.168839 38.36,104.603092 37.1424,104.603092 C35.9264,104.603092 34.9392,106.168839 34.9392,108.092471 Z M24.112,106.349379 C24.112,107.312793 24.8928,108.092471 25.8576,108.092471 C26.8224,108.092471 27.6016,107.312793 27.6016,106.349379 C27.6016,105.385966 26.8224,104.603092 25.8576,104.603092 C24.8928,104.603092 24.112,105.385966 24.112,106.349379 Z M17.768,116.983678 C17.768,116.621 17.768,116.25992 17.768,115.897241 L17.8064,115.838126 C17.88,115.449885 18.0752,115.131943 18.3408,114.857138 C18.8768,114.304333 19.5264,114.07746 20.2896,114.155747 L20.544,114.147759 L20.584,113.885736 C20.6432,113.414414 20.6976,112.939897 20.7552,112.466977 C20.8272,111.856655 20.9056,111.24154 20.9792,110.631218 C21.0528,110.036874 21.1216,109.439333 21.1952,108.843391 C21.2688,108.242655 21.3456,107.637126 21.4192,107.034793 C21.5104,106.282276 21.5968,105.532954 21.688,104.782034 C21.7872,103.999161 21.8816,103.213092 21.9792,102.431816 L22.0448,102.110678 L22.2832,102.078724 C22.5072,102.057954 22.7264,102.037184 22.9472,102.011621 C23.392,101.97008 23.832,101.920552 24.2768,101.879011 C24.6928,101.837471 25.112,101.802322 25.528,101.763977 C25.9904,101.722437 26.4448,101.677701 26.9056,101.639356 C27.4064,101.599414 27.9072,101.561069 28.4064,101.522724 C29.1968,101.463609 29.984,101.401299 30.7712,101.345379 C31.4272,101.303839 32.0864,101.265494 32.744,101.230345 C33.6144,101.177621 34.4848,101.128092 35.3568,101.086552 C36.2592,101.041816 37.1632,101.003471 38.0688,100.960333 C38.4048,100.947552 38.744,100.944356 39.08,100.929977 C39.7872,100.906011 40.4928,100.874057 41.2032,100.85169 C41.9648,100.827724 42.7312,100.818138 43.4976,100.800563 C44.2944,100.782989 45.0928,100.765414 45.8928,100.751034 C46.7152,100.741448 47.5408,100.738253 48.3616,100.73346 C49.6496,100.73346 50.9328,100.738253 52.216,100.744644 C53.1632,100.747839 54.112,100.759023 55.056,100.765414 C55.4448,100.768609 55.832,100.776598 56.2176,100.786184 C56.952,100.800563 57.6832,100.818138 58.4176,100.832517 C58.7776,100.838908 59.1408,100.842103 59.5008,100.85169 C60.2496,100.874057 60.9984,100.906011 61.7472,100.929977 C62.6416,100.965126 63.5408,100.995483 64.4352,101.030632 C65.2256,101.062586 66.0128,101.092943 66.8032,101.128092 C67.3696,101.152057 67.9408,101.180816 68.5024,101.209575 C69.2128,101.246322 69.92,101.28946 70.6256,101.327805 C71.2976,101.366149 71.9728,101.404494 72.648,101.446034 C72.952,101.463609 73.2528,101.484379 73.5568,101.506747 C74.1408,101.54669 74.7216,101.589828 75.3056,101.631368 C75.8544,101.672908 76.4064,101.708057 76.9568,101.749598 C77.656,101.807115 78.352,101.86623 79.048,101.925345 C79.6704,101.978069 80.2928,102.033989 80.9184,102.08831 L81.1248,102.126655 C81.2016,102.938287 81.248,103.751517 81.3104,104.561552 C81.3728,105.365195 81.4224,106.168839 81.4816,106.970885 C81.5408,107.78092 81.6032,108.595747 81.6624,109.404184 C81.72,110.207828 81.7712,111.011471 81.8352,111.815115 C81.8976,112.625149 81.944,113.435184 82.0176,114.227644 L82.0592,114.256402 L82.2048,114.265989 C82.664,114.269184 83.08,114.409782 83.4544,114.671805 C83.9408,115.010517 84.2512,115.470655 84.384,116.050621 L84.4896,116.291874 C84.4896,116.474011 84.4896,116.656149 84.4896,116.83669 L84.3888,117.050782 C84.1264,118.258644 82.936,119.086253 81.6384,118.806655 C80.4944,118.562207 79.6352,117.443816 79.8768,116.124115 C79.9808,115.569713 80.2608,115.115966 80.7008,114.759678 L80.856,114.622276 C79.0544,112.995816 77.2592,111.378943 75.4704,109.758874 C74.8992,109.241218 73.7728,108.092471 73.5216,109.05908 C73.3536,109.709345 73.3056,110.38677 73.1968,111.053011 C73.0912,111.703276 72.984,112.348747 72.8784,112.999011 C72.7696,113.655667 72.664,114.312322 72.5568,114.968977 C72.448,115.628828 72.3392,116.285483 72.2352,116.942138 C72.1264,117.597195 72.0176,118.255448 71.9136,118.912103 C71.8192,119.504851 71.7216,120.094402 71.6256,120.688747 L71.6288,120.814966 L71.7904,120.821356 C72.5104,120.866092 73.1296,121.142494 73.6256,121.66654 C74.32,122.39669 74.5504,123.265839 74.3296,124.240437 C74.0256,125.592092 72.6784,126.622609 71.0768,126.317448 C69.6512,126.049034 68.5728,124.628678 68.8976,123.027782 C69.0352,122.37592 69.3696,121.84069 69.8848,121.422092 L70.0624,121.247943 L69.9264,121.104149 C69.4688,120.656793 69.0096,120.206241 68.5552,119.75569 C67.776,118.987195 66.9952,118.220299 66.216,117.451805 C65.4576,116.69769 64.6944,115.94677 63.936,115.195851 C63.3024,114.569552 62.6736,113.941655 62.04,113.316954 C61.8016,113.078897 60.9312,113.034161 60.5328,113.794667 C58.4064,117.822471 51.9856,130.097609 51.9152,130.295724 L52.1216,130.354839 C53.9264,130.827759 54.9328,132.727425 54.3104,134.480103 C53.8704,135.723115 52.752,136.43569 51.8112,136.536345 L51.7232,136.57469 C51.4608,136.57469 51.1952,136.57469 50.9328,136.57469 L50.6288,136.504391 C48.8304,136.093782 47.7536,134.245241 48.3024,132.492563 C48.6384,131.428494 49.36,130.733494 50.4192,130.389989 L50.6256,130.31969 L50.608,130.236609 C48.016,125.036092 45.0928,119.162943 42.504,113.956034 C42.168,113.288195 41.984,112.751368 40.8432,113.655667 C38.1632,115.782207 35.5168,118.813046 33.0896,121.227172 L33.024,121.310253 L33.2576,121.498782 C34.1392,122.208161 34.544,123.454368 34.1072,124.62069 C33.4784,126.293483 31.5552,126.891023 30.1104,126.063414 C29.0992,125.483448 28.536,124.345885 28.76,123.147609 C29.0368,121.674529 30.3264,120.850115 31.4848,120.880471 L31.6912,120.859701 C31.2608,117.284046 30.8336,113.717977 30.4064,110.156701 C30.3376,109.565552 29.9808,108.566989 28.8992,109.300333 C26.48,110.952356 21.9232,114.807609 21.7872,114.940218 L21.936,115.160701 C22.6048,116.170448 22.3808,117.522103 21.4256,118.258644 C20.96,118.614931 20.4368,118.757126 19.8528,118.729966 C18.8912,118.680437 18.04,117.979046 17.8096,117.042793 L17.768,116.983678 L17.768,116.983678 Z" id="Fill-1149" fill="#E6A52E"></path>
                        <path d="M21.92,100.458655 L21.7616,100.458655 C21.7872,99.7876207 21.8272,99.1245747 21.8592,98.459931 C21.888,97.7968851 21.9232,97.1338391 21.96,96.466 C22,95.8061494 22.0208,95.1431034 22.0688,94.472069 L22.2016,94.4369195 C22.7344,94.3857931 23.2656,94.333069 23.7968,94.2771494 C24.2176,94.2340115 24.6336,94.1892759 25.0496,94.150931 C25.4864,94.1093908 25.92,94.071046 26.3536,94.0327011 C26.8464,93.9895632 27.3392,93.9448276 27.8288,93.9064828 C28.3296,93.8649425 28.8336,93.8265977 29.3328,93.7914483 C29.9376,93.7467126 30.5472,93.7035747 31.1552,93.6588391 C31.4416,93.638069 31.728,93.6204943 32.0192,93.6029195 C32.6976,93.5645747 33.384,93.5262299 34.0608,93.4878851 C34.8944,93.4415517 35.7232,93.4000115 36.552,93.3616667 C37.2016,93.3297126 37.8528,93.3057471 38.504,93.2817816 C39.1856,93.2546207 39.8672,93.2258621 40.5488,93.205092 C40.8896,93.193908 41.224,93.1907126 41.5632,93.1843218 C42.1792,93.1699425 42.7984,93.1523678 43.4144,93.1379885 C43.7536,93.1268046 44.0896,93.1204138 44.424,93.1172184 C45.6448,93.1028391 46.8608,93.0932529 48.0832,93.0868621 C49.0864,93.0756782 50.0896,93.0644943 51.0976,93.0676897 C52.3312,93.0724828 53.5664,93.0868621 54.8,93.1028391 C55.6576,93.114023 56.5152,93.1315977 57.368,93.1523678 C58.144,93.1699425 58.9168,93.1907126 59.6896,93.2146782 C60.6592,93.2466322 61.6304,93.2785862 62.6,93.3137356 C63.384,93.344092 64.1632,93.376046 64.9424,93.4111954 C65.9568,93.4591264 66.968,93.5086552 67.9792,93.5597816 C68.7824,93.6029195 69.5872,93.6476552 70.3952,93.6939885 C71.0256,93.7323333 71.6576,93.7802644 72.2912,93.8234023 C72.8752,93.8601494 73.4592,93.8952989 74.04,93.9384368 C74.6064,93.9767816 75.1728,94.0215172 75.7392,94.0678506 C76.232,94.1061954 76.7264,94.1445402 77.2144,94.1828851 C77.6656,94.2180345 78.1168,94.2563793 78.568,94.2979195 C79.0544,94.3394598 79.5376,94.3889885 80.0192,94.4337241 L80.1696,94.4544943 L80.2016,94.7372874 C80.2288,95.2549425 80.2544,95.771 80.2784,96.2918506 C80.3104,96.9197471 80.3456,97.5524368 80.376,98.1835287 C80.4112,98.8242069 80.4464,99.4664828 80.4784,100.105563 L80.4992,100.47623 L80.3456,100.514575 C79.688,100.447471 79.0336,100.37877 78.3792,100.314862 C77.7712,100.255747 77.1664,100.203023 76.5584,100.147103 C75.9104,100.087989 75.2624,100.028874 74.616,99.972954 C74.1088,99.9314138 73.5984,99.8962644 73.0912,99.8531264 C72.5504,99.8115862 72.008,99.770046 71.4656,99.7317011 C71.1792,99.7077356 70.8928,99.6853678 70.6048,99.6693908 C69.944,99.6262529 69.2896,99.587908 68.632,99.5495632 C67.8848,99.5048276 67.136,99.4584943 66.3872,99.416954 C65.7152,99.3786092 65.04,99.3482529 64.3648,99.3194943 C63.568,99.2811494 62.7712,99.2491954 61.9744,99.2172414 C61.2736,99.1932759 60.5744,99.1725057 59.8752,99.154931 C59.2496,99.1373563 58.6272,99.1197816 58,99.107 C57.136,99.0846322 56.2736,99.0782414 55.4064,99.0542759 C53.3568,99.0015517 51.3072,99.0223218 49.2576,99.015931 C48.736,99.015931 48.2192,99.0191264 47.7008,99.0255172 C46.6624,99.0398966 45.624,99.0542759 44.5888,99.075046 C43.7744,99.0894253 42.96,99.1133908 42.144,99.1373563 C41.1648,99.1661149 40.1856,99.2012644 39.2096,99.2364138 C38.4512,99.2635747 37.6944,99.2987241 36.936,99.3338736 C36.0176,99.3754138 35.096,99.416954 34.1776,99.4696782 C33.24,99.5255977 32.3024,99.587908 31.368,99.6518161 C30.5536,99.7045402 29.7424,99.7556667 28.928,99.8147816 C28.208,99.8675057 27.4832,99.9346092 26.7632,99.9937241 C26.312,100.032069 25.8608,100.067218 25.4096,100.108759 C24.8112,100.161483 24.2128,100.220598 23.616,100.282908 C23.0496,100.338828 22.4864,100.402736 21.92,100.458655" id="Fill-1150" fill="#D28B2F"></path>
                        <path d="M25.8576,108.092471 C24.8928,108.092471 24.112,107.312793 24.112,106.349379 C24.112,105.385966 24.8928,104.603092 25.8576,104.603092 C26.8224,104.603092 27.6016,105.385966 27.6016,106.349379 C27.6016,107.312793 26.8224,108.092471 25.8576,108.092471" id="Fill-1151" fill="#13A2A4"></path>
                        <path d="M37.1424,111.580253 C35.9264,111.580253 34.9392,110.019299 34.9392,108.092471 C34.9392,106.168839 35.9264,104.603092 37.1424,104.603092 C38.36,104.603092 39.3456,106.168839 39.3456,108.092471 C39.3456,110.019299 38.36,111.580253 37.1424,111.580253" id="Fill-1152" fill="#13A2A4"></path>
                        <path d="M47.928,115.697529 C47.376,114.333092 47.9744,109.715736 48.0016,109.506437 L48.0192,109.468092 L48.1456,109.241218 L48.24,109.076655 L48.2432,109.070264 C48.9664,107.871989 50.048,107.114678 51.2544,107.114678 C52.248,107.114678 53.1568,107.62754 53.8496,108.479115 L54.8112,110.242977 C54.8704,110.404345 54.92,110.56731 54.9648,110.735069 L54.9968,114.489667 C54.9376,114.745299 54.8592,114.989747 54.7728,115.226207 L53.9296,116.78077 L53.9264,116.783966 C53.224,117.69146 52.2832,118.244264 51.2544,118.244264 C50.056,118.244264 48.9776,117.493345 48.2544,116.309448 L48.016,115.879667 L47.928,115.697529" id="Fill-1154" fill="#13A2A4"></path>
                        <path d="M66.1632,111.580253 C64.9472,111.580253 63.96,110.019299 63.96,108.092471 C63.96,106.168839 64.9472,104.603092 66.1632,104.603092 C67.3808,104.603092 68.3664,106.168839 68.3664,108.092471 C68.3664,110.019299 67.3808,111.580253 66.1632,111.580253" id="Fill-1160" fill="#13A2A4"></path>
                        <path d="M77.4496,108.092471 C76.4848,108.092471 75.704,107.312793 75.704,106.349379 C75.704,105.385966 76.4848,104.603092 77.4496,104.603092 C78.4144,104.603092 79.1936,105.385966 79.1936,106.349379 C79.1936,107.312793 78.4144,108.092471 77.4496,108.092471" id="Fill-1161" fill="#13A2A4"></path>
                        <path d="M52.3024,129.754103 C53.2352,130.679172 54.5664,132.003667 55.08,132.537299 C55.9072,133.395264 56.4656,133.452782 55.08,134.839586 C53.696,136.227989 53.1488,136.772805 52.5456,137.360759 C51.4736,138.404057 51.2352,138.503115 50.28,137.550885 C49.6816,136.954943 48.312,135.585713 47.3728,134.647862 C46.1552,133.633322 46.7888,133.305793 47.3728,132.719437 C47.7616,132.334391 49.352,130.74308 50.392,129.704575 C51.2368,128.969632 51.7376,129.191713 52.3024,129.754103" id="Fill-1162" fill="#13A2A4"></path>
                        <path d="M10.1984,58.9967126 L18.2768,58.9967126 C18.2768,58.9967126 18.2768,92.4685517 18.2768,98.7587011 C18.2768,103.594943 16.1056,124.91946 13.9776,124.91946 C11.848,124.91946 10.1984,103.369667 10.1984,98.9568161 C10.1984,93.0916552 10.1984,58.9967126 10.1984,58.9967126" id="Fill-1163" fill="#CCCCCC"></path>
                        <path d="M9.8624,41.5178621 C9.8624,39.0925517 11.8352,37.1225862 14.2656,37.1225862 C16.6976,37.1225862 18.6672,39.0925517 18.6672,41.5178621 L18.6672,52.1186092 C18.6672,54.5455172 16.6976,56.5138851 14.2656,56.5138851 C11.8352,56.5138851 9.8624,54.5455172 9.8624,52.1186092 L9.8624,41.5178621" id="Fill-1164" fill="#775B35"></path>
                        <path d="M0,55.9019655 C0,53.5581379 1.9024,51.660069 4.2512,51.660069 L24.28,51.660069 C26.6272,51.660069 28.5296,53.5581379 28.5296,55.9019655 C28.5296,58.2473908 26.6272,60.1454598 24.28,60.1454598 L4.2512,60.1454598 C1.9024,60.1454598 0,58.2473908 0,55.9019655" id="Fill-1165" fill="#EFA000"></path>
                        <path d="M9.3184,39.4392529 C9.3184,36.7103793 11.5312,34.5007586 14.2656,34.5007586 C16.9968,34.5007586 19.2112,36.7103793 19.2112,39.4392529 C19.2112,42.1665287 16.9968,44.3809425 14.2656,44.3809425 C11.5312,44.3809425 9.3184,42.1665287 9.3184,39.4392529" id="Fill-1166" fill="#EFA000"></path>
                    </g>
                    <g id="King-Top" transform="translate(50.000000, 71.000000) rotate(180.000000) translate(-50.000000, -71.000000) translate(4.000000, 1.000000)">
                        <path d="M51.1728,49.0414368 C71.544,49.0414368 88.8128,26.1240115 90.9824,4.50391954 L12.5056,4.50391954 C14.5424,26.1240115 30.8016,49.0414368 51.1728,49.0414368" id="Fill-1138" fill="#E34E45"></path>
                        <path d="M91.2144,0 C64.6889606,0 44.0570892,0 4.7152,0 C4.7152,0.992704981 4.7152,2.49401149 4.7152,4.50391954 L90.9601402,4.50391954 C91.1267242,2.99568966 91.2144,1.48905747 91.2144,0 Z" id="Fill-1139" fill="#AA3730"></path>
                        <path d="M4.7152,43.8664828 C4.7152,49.1325057 8.992,53.4031609 14.2656,53.4031609 C19.5376,53.4031609 23.8144,49.1325057 23.8144,43.8664828 L23.8144,42.9430115 L4.7152,42.9430115 L4.7152,43.8664828" id="Fill-1141" fill="#F1D2AC"></path>
                        <polygon id="Fill-1142" fill="#AA3730" points="4.7152 43.4878276 23.8144 43.4878276 23.8144 38.733069 4.7152 38.733069"></polygon>
                        <polygon id="Fill-1143" fill="#E34E45" points="4.7152 38.733069 23.8144 38.733069 23.8144 4.50391954 4.7152 4.50391954"></polygon>
                        <path d="M20.3264,72.1937241 C20.3264,53.3424483 34.36,33.4047356 51.6736,33.4047356 C68.9888,33.4047356 83.024,53.3424483 83.024,72.1937241 C83.024,91.0481954 80.5872,106.328609 51.6736,106.328609 C20.3264,106.328609 20.3264,91.0481954 20.3264,72.1937241" id="Fill-1146" fill="#F1D2AC"></path>
                        <path d="M83.1168,68.9807471 C82.3008,68.9807471 81.2032,70.0799655 80.1952,72.6282989 C78.4576,77.0251724 71.3136,81.0401954 67.1152,84.3857816 C64.192,86.7168276 62.328,86.0633678 60.4288,84.7436667 C49.392,77.0762989 34.792,78.2985402 27.5136,76.9564713 C22.1376,75.9658966 23.2256,70.2557126 20.672,70.6104023 C18.1152,70.965092 17.84,77.776092 18.7488,82.9654253 C20.704,89.3801954 21.5696,95.8093448 27.6432,100.410724 C34.424,105.548931 43.408,108.566989 51.6928,108.566989 C59.9392,108.566989 68.9792,105.847701 75.4832,100.682333 C81.2528,96.1033218 83.4224,87.6259195 84.1264,82.6011494 C84.8288,77.5795747 87.96,69.7588276 83.1168,68.9807471" id="Fill-1147" fill="#775B35"></path>
                        <path d="M36.4608,44.4097011 C36.4608,39.801931 39.2128,36.0665057 42.6048,36.0665057 C45.7536,36.0665057 48.3408,39.2762874 48.7056,43.4143333 L48.7104,43.4271149 C48.8752,45.3347701 50.1664,46.8254253 51.7536,46.8254253 C53.1296,46.8254253 54.2848,45.6958506 54.6736,44.1492759 L54.6864,44.1317011 L54.688,44.094954 C54.7344,43.9000345 54.768,43.7035172 54.7904,43.5006092 L54.8064,43.4398966 C55.1616,39.2906667 57.7568,36.0665057 60.9088,36.0665057 C64.304,36.0665057 67.056,39.801931 67.056,44.4097011 C67.056,44.7564023 67.056,46.1048621 67.056,46.4499655 C67.056,49.0845747 66.1536,51.4284023 64.7504,52.9558046 L64.7168,53.0420805 L64.4512,53.2625632 C63.4496,54.2227816 62.9104,54.7324483 60.9088,54.7947586 C58.9072,54.857069 55.7392,52.82 55.52,52.756092 C55.1776,52.6202874 54.4816,52.2735862 53.9936,53.7738276 C53.528,54.8666552 52.6672,55.6111839 51.6752,55.6111839 C50.912,55.6111839 50.2272,55.1734138 49.7376,54.4800115 L49.7312,54.4768161 L49.6528,54.3394138 C49.5584,54.194023 49.472,54.0438391 49.3968,53.8792759 C49.112,53.4287241 48.608,52.8711264 47.6944,52.7544943 C46.1696,52.5547816 46,54.4768161 42.6048,54.4768161 C39.2128,54.4768161 36.4608,50.7397931 36.4608,46.132023 C36.4608,45.8396437 36.4608,44.7004828 36.4608,44.4097011 Z M30.3696,34.285069 L30.3664,34.2818736 C30.3664,34.2818736 30.3712,34.4176782 30.3824,34.6477471 L30.3952,34.9065747 C30.5696,38.1131609 31.7136,52.9717816 38,57.1034368 C38.344,57.3798391 38.7056,57.6338736 39.1168,57.8224023 C39.4416,57.9725862 40.408,58.4247356 41.3008,58.7027356 C48.6464,61.7447586 57.8368,62.764092 64.9536,57.530023 L65.0528,57.4517356 C65.656,57.0602989 66.1808,56.5618161 66.6448,56.0106092 C72.9392,49.2858851 72.8768,35.6047701 72.8768,35.6047701 L72.8752,35.6047701 C72.9504,35.1430345 72.992,34.6094023 72.992,33.991092 C72.992,24.2882529 63.448,16.4211724 51.6752,16.4211724 C39.9024,16.4211724 30.36,24.2882529 30.36,33.991092 L30.3696,34.285069 L30.3696,34.285069 Z" id="Fill-1148" fill="#775B35"></path>
                        <path d="M75.704,106.349379 C75.704,107.312793 76.4848,108.092471 77.4496,108.092471 C78.4144,108.092471 79.1936,107.312793 79.1936,106.349379 C79.1936,105.385966 78.4144,104.603092 77.4496,104.603092 C76.4848,104.603092 75.704,105.385966 75.704,106.349379 Z M63.96,108.092471 C63.96,110.019299 64.9472,111.580253 66.1632,111.580253 C67.3808,111.580253 68.3664,110.019299 68.3664,108.092471 C68.3664,106.168839 67.3808,104.603092 66.1632,104.603092 C64.9472,104.603092 63.96,106.168839 63.96,108.092471 Z M47.6032,110.516184 C47.4032,111.17923 47.2928,111.912575 47.2928,112.681069 C47.2928,113.794667 47.5264,114.831575 47.928,115.697529 L47.984,115.823747 L48.016,115.879667 C48.0896,116.029851 48.1696,116.173644 48.2544,116.309448 C49.2576,118.118046 50.1888,119.718943 50.5648,120.476253 C51.2256,121.799149 51.936,120.452287 51.936,120.452287 L53.9264,116.783966 L53.9296,116.78077 C54.272,116.341402 54.56,115.814161 54.7728,115.226207 L55,114.807609 L54.9968,114.489667 C55.136,113.92408 55.2128,113.313759 55.2128,112.681069 C55.2128,111.997253 55.1264,111.340598 54.9648,110.735069 L54.9616,110.516184 L54.8112,110.242977 C54.5808,109.565552 54.2512,108.968011 53.8496,108.479115 L52.0208,105.127138 C52.0208,105.127138 51.3376,103.51346 50.4704,105.074414 C49.8064,106.266299 48.7184,108.213897 48.2432,109.070264 L48.24,109.076655 L48.1456,109.241218 L48.0192,109.468092 L48.0016,109.500046 L48.0016,109.506437 C47.8448,109.821184 47.712,110.159897 47.6032,110.516184 Z M34.9392,108.092471 C34.9392,110.019299 35.9264,111.580253 37.1424,111.580253 C38.36,111.580253 39.3456,110.019299 39.3456,108.092471 C39.3456,106.168839 38.36,104.603092 37.1424,104.603092 C35.9264,104.603092 34.9392,106.168839 34.9392,108.092471 Z M24.112,106.349379 C24.112,107.312793 24.8928,108.092471 25.8576,108.092471 C26.8224,108.092471 27.6016,107.312793 27.6016,106.349379 C27.6016,105.385966 26.8224,104.603092 25.8576,104.603092 C24.8928,104.603092 24.112,105.385966 24.112,106.349379 Z M17.768,116.983678 C17.768,116.621 17.768,116.25992 17.768,115.897241 L17.8064,115.838126 C17.88,115.449885 18.0752,115.131943 18.3408,114.857138 C18.8768,114.304333 19.5264,114.07746 20.2896,114.155747 L20.544,114.147759 L20.584,113.885736 C20.6432,113.414414 20.6976,112.939897 20.7552,112.466977 C20.8272,111.856655 20.9056,111.24154 20.9792,110.631218 C21.0528,110.036874 21.1216,109.439333 21.1952,108.843391 C21.2688,108.242655 21.3456,107.637126 21.4192,107.034793 C21.5104,106.282276 21.5968,105.532954 21.688,104.782034 C21.7872,103.999161 21.8816,103.213092 21.9792,102.431816 L22.0448,102.110678 L22.2832,102.078724 C22.5072,102.057954 22.7264,102.037184 22.9472,102.011621 C23.392,101.97008 23.832,101.920552 24.2768,101.879011 C24.6928,101.837471 25.112,101.802322 25.528,101.763977 C25.9904,101.722437 26.4448,101.677701 26.9056,101.639356 C27.4064,101.599414 27.9072,101.561069 28.4064,101.522724 C29.1968,101.463609 29.984,101.401299 30.7712,101.345379 C31.4272,101.303839 32.0864,101.265494 32.744,101.230345 C33.6144,101.177621 34.4848,101.128092 35.3568,101.086552 C36.2592,101.041816 37.1632,101.003471 38.0688,100.960333 C38.4048,100.947552 38.744,100.944356 39.08,100.929977 C39.7872,100.906011 40.4928,100.874057 41.2032,100.85169 C41.9648,100.827724 42.7312,100.818138 43.4976,100.800563 C44.2944,100.782989 45.0928,100.765414 45.8928,100.751034 C46.7152,100.741448 47.5408,100.738253 48.3616,100.73346 C49.6496,100.73346 50.9328,100.738253 52.216,100.744644 C53.1632,100.747839 54.112,100.759023 55.056,100.765414 C55.4448,100.768609 55.832,100.776598 56.2176,100.786184 C56.952,100.800563 57.6832,100.818138 58.4176,100.832517 C58.7776,100.838908 59.1408,100.842103 59.5008,100.85169 C60.2496,100.874057 60.9984,100.906011 61.7472,100.929977 C62.6416,100.965126 63.5408,100.995483 64.4352,101.030632 C65.2256,101.062586 66.0128,101.092943 66.8032,101.128092 C67.3696,101.152057 67.9408,101.180816 68.5024,101.209575 C69.2128,101.246322 69.92,101.28946 70.6256,101.327805 C71.2976,101.366149 71.9728,101.404494 72.648,101.446034 C72.952,101.463609 73.2528,101.484379 73.5568,101.506747 C74.1408,101.54669 74.7216,101.589828 75.3056,101.631368 C75.8544,101.672908 76.4064,101.708057 76.9568,101.749598 C77.656,101.807115 78.352,101.86623 79.048,101.925345 C79.6704,101.978069 80.2928,102.033989 80.9184,102.08831 L81.1248,102.126655 C81.2016,102.938287 81.248,103.751517 81.3104,104.561552 C81.3728,105.365195 81.4224,106.168839 81.4816,106.970885 C81.5408,107.78092 81.6032,108.595747 81.6624,109.404184 C81.72,110.207828 81.7712,111.011471 81.8352,111.815115 C81.8976,112.625149 81.944,113.435184 82.0176,114.227644 L82.0592,114.256402 L82.2048,114.265989 C82.664,114.269184 83.08,114.409782 83.4544,114.671805 C83.9408,115.010517 84.2512,115.470655 84.384,116.050621 L84.4896,116.291874 C84.4896,116.474011 84.4896,116.656149 84.4896,116.83669 L84.3888,117.050782 C84.1264,118.258644 82.936,119.086253 81.6384,118.806655 C80.4944,118.562207 79.6352,117.443816 79.8768,116.124115 C79.9808,115.569713 80.2608,115.115966 80.7008,114.759678 L80.856,114.622276 C79.0544,112.995816 77.2592,111.378943 75.4704,109.758874 C74.8992,109.241218 73.7728,108.092471 73.5216,109.05908 C73.3536,109.709345 73.3056,110.38677 73.1968,111.053011 C73.0912,111.703276 72.984,112.348747 72.8784,112.999011 C72.7696,113.655667 72.664,114.312322 72.5568,114.968977 C72.448,115.628828 72.3392,116.285483 72.2352,116.942138 C72.1264,117.597195 72.0176,118.255448 71.9136,118.912103 C71.8192,119.504851 71.7216,120.094402 71.6256,120.688747 L71.6288,120.814966 L71.7904,120.821356 C72.5104,120.866092 73.1296,121.142494 73.6256,121.66654 C74.32,122.39669 74.5504,123.265839 74.3296,124.240437 C74.0256,125.592092 72.6784,126.622609 71.0768,126.317448 C69.6512,126.049034 68.5728,124.628678 68.8976,123.027782 C69.0352,122.37592 69.3696,121.84069 69.8848,121.422092 L70.0624,121.247943 L69.9264,121.104149 C69.4688,120.656793 69.0096,120.206241 68.5552,119.75569 C67.776,118.987195 66.9952,118.220299 66.216,117.451805 C65.4576,116.69769 64.6944,115.94677 63.936,115.195851 C63.3024,114.569552 62.6736,113.941655 62.04,113.316954 C61.8016,113.078897 60.9312,113.034161 60.5328,113.794667 C58.4064,117.822471 51.9856,130.097609 51.9152,130.295724 L52.1216,130.354839 C53.9264,130.827759 54.9328,132.727425 54.3104,134.480103 C53.8704,135.723115 52.752,136.43569 51.8112,136.536345 L51.7232,136.57469 C51.4608,136.57469 51.1952,136.57469 50.9328,136.57469 L50.6288,136.504391 C48.8304,136.093782 47.7536,134.245241 48.3024,132.492563 C48.6384,131.428494 49.36,130.733494 50.4192,130.389989 L50.6256,130.31969 L50.608,130.236609 C48.016,125.036092 45.0928,119.162943 42.504,113.956034 C42.168,113.288195 41.984,112.751368 40.8432,113.655667 C38.1632,115.782207 35.5168,118.813046 33.0896,121.227172 L33.024,121.310253 L33.2576,121.498782 C34.1392,122.208161 34.544,123.454368 34.1072,124.62069 C33.4784,126.293483 31.5552,126.891023 30.1104,126.063414 C29.0992,125.483448 28.536,124.345885 28.76,123.147609 C29.0368,121.674529 30.3264,120.850115 31.4848,120.880471 L31.6912,120.859701 C31.2608,117.284046 30.8336,113.717977 30.4064,110.156701 C30.3376,109.565552 29.9808,108.566989 28.8992,109.300333 C26.48,110.952356 21.9232,114.807609 21.7872,114.940218 L21.936,115.160701 C22.6048,116.170448 22.3808,117.522103 21.4256,118.258644 C20.96,118.614931 20.4368,118.757126 19.8528,118.729966 C18.8912,118.680437 18.04,117.979046 17.8096,117.042793 L17.768,116.983678 L17.768,116.983678 Z" id="Fill-1149" fill="#E6A52E"></path>
                        <path d="M21.92,100.458655 L21.7616,100.458655 C21.7872,99.7876207 21.8272,99.1245747 21.8592,98.459931 C21.888,97.7968851 21.9232,97.1338391 21.96,96.466 C22,95.8061494 22.0208,95.1431034 22.0688,94.472069 L22.2016,94.4369195 C22.7344,94.3857931 23.2656,94.333069 23.7968,94.2771494 C24.2176,94.2340115 24.6336,94.1892759 25.0496,94.150931 C25.4864,94.1093908 25.92,94.071046 26.3536,94.0327011 C26.8464,93.9895632 27.3392,93.9448276 27.8288,93.9064828 C28.3296,93.8649425 28.8336,93.8265977 29.3328,93.7914483 C29.9376,93.7467126 30.5472,93.7035747 31.1552,93.6588391 C31.4416,93.638069 31.728,93.6204943 32.0192,93.6029195 C32.6976,93.5645747 33.384,93.5262299 34.0608,93.4878851 C34.8944,93.4415517 35.7232,93.4000115 36.552,93.3616667 C37.2016,93.3297126 37.8528,93.3057471 38.504,93.2817816 C39.1856,93.2546207 39.8672,93.2258621 40.5488,93.205092 C40.8896,93.193908 41.224,93.1907126 41.5632,93.1843218 C42.1792,93.1699425 42.7984,93.1523678 43.4144,93.1379885 C43.7536,93.1268046 44.0896,93.1204138 44.424,93.1172184 C45.6448,93.1028391 46.8608,93.0932529 48.0832,93.0868621 C49.0864,93.0756782 50.0896,93.0644943 51.0976,93.0676897 C52.3312,93.0724828 53.5664,93.0868621 54.8,93.1028391 C55.6576,93.114023 56.5152,93.1315977 57.368,93.1523678 C58.144,93.1699425 58.9168,93.1907126 59.6896,93.2146782 C60.6592,93.2466322 61.6304,93.2785862 62.6,93.3137356 C63.384,93.344092 64.1632,93.376046 64.9424,93.4111954 C65.9568,93.4591264 66.968,93.5086552 67.9792,93.5597816 C68.7824,93.6029195 69.5872,93.6476552 70.3952,93.6939885 C71.0256,93.7323333 71.6576,93.7802644 72.2912,93.8234023 C72.8752,93.8601494 73.4592,93.8952989 74.04,93.9384368 C74.6064,93.9767816 75.1728,94.0215172 75.7392,94.0678506 C76.232,94.1061954 76.7264,94.1445402 77.2144,94.1828851 C77.6656,94.2180345 78.1168,94.2563793 78.568,94.2979195 C79.0544,94.3394598 79.5376,94.3889885 80.0192,94.4337241 L80.1696,94.4544943 L80.2016,94.7372874 C80.2288,95.2549425 80.2544,95.771 80.2784,96.2918506 C80.3104,96.9197471 80.3456,97.5524368 80.376,98.1835287 C80.4112,98.8242069 80.4464,99.4664828 80.4784,100.105563 L80.4992,100.47623 L80.3456,100.514575 C79.688,100.447471 79.0336,100.37877 78.3792,100.314862 C77.7712,100.255747 77.1664,100.203023 76.5584,100.147103 C75.9104,100.087989 75.2624,100.028874 74.616,99.972954 C74.1088,99.9314138 73.5984,99.8962644 73.0912,99.8531264 C72.5504,99.8115862 72.008,99.770046 71.4656,99.7317011 C71.1792,99.7077356 70.8928,99.6853678 70.6048,99.6693908 C69.944,99.6262529 69.2896,99.587908 68.632,99.5495632 C67.8848,99.5048276 67.136,99.4584943 66.3872,99.416954 C65.7152,99.3786092 65.04,99.3482529 64.3648,99.3194943 C63.568,99.2811494 62.7712,99.2491954 61.9744,99.2172414 C61.2736,99.1932759 60.5744,99.1725057 59.8752,99.154931 C59.2496,99.1373563 58.6272,99.1197816 58,99.107 C57.136,99.0846322 56.2736,99.0782414 55.4064,99.0542759 C53.3568,99.0015517 51.3072,99.0223218 49.2576,99.015931 C48.736,99.015931 48.2192,99.0191264 47.7008,99.0255172 C46.6624,99.0398966 45.624,99.0542759 44.5888,99.075046 C43.7744,99.0894253 42.96,99.1133908 42.144,99.1373563 C41.1648,99.1661149 40.1856,99.2012644 39.2096,99.2364138 C38.4512,99.2635747 37.6944,99.2987241 36.936,99.3338736 C36.0176,99.3754138 35.096,99.416954 34.1776,99.4696782 C33.24,99.5255977 32.3024,99.587908 31.368,99.6518161 C30.5536,99.7045402 29.7424,99.7556667 28.928,99.8147816 C28.208,99.8675057 27.4832,99.9346092 26.7632,99.9937241 C26.312,100.032069 25.8608,100.067218 25.4096,100.108759 C24.8112,100.161483 24.2128,100.220598 23.616,100.282908 C23.0496,100.338828 22.4864,100.402736 21.92,100.458655" id="Fill-1150" fill="#D28B2F"></path>
                        <path d="M25.8576,108.092471 C24.8928,108.092471 24.112,107.312793 24.112,106.349379 C24.112,105.385966 24.8928,104.603092 25.8576,104.603092 C26.8224,104.603092 27.6016,105.385966 27.6016,106.349379 C27.6016,107.312793 26.8224,108.092471 25.8576,108.092471" id="Fill-1151" fill="#13A2A4"></path>
                        <path d="M37.1424,111.580253 C35.9264,111.580253 34.9392,110.019299 34.9392,108.092471 C34.9392,106.168839 35.9264,104.603092 37.1424,104.603092 C38.36,104.603092 39.3456,106.168839 39.3456,108.092471 C39.3456,110.019299 38.36,111.580253 37.1424,111.580253" id="Fill-1152" fill="#13A2A4"></path>
                        <path d="M47.928,115.697529 C47.376,114.333092 47.9744,109.715736 48.0016,109.506437 L48.0192,109.468092 L48.1456,109.241218 L48.24,109.076655 L48.2432,109.070264 C48.9664,107.871989 50.048,107.114678 51.2544,107.114678 C52.248,107.114678 53.1568,107.62754 53.8496,108.479115 L54.8112,110.242977 C54.8704,110.404345 54.92,110.56731 54.9648,110.735069 L54.9968,114.489667 C54.9376,114.745299 54.8592,114.989747 54.7728,115.226207 L53.9296,116.78077 L53.9264,116.783966 C53.224,117.69146 52.2832,118.244264 51.2544,118.244264 C50.056,118.244264 48.9776,117.493345 48.2544,116.309448 L48.016,115.879667 L47.928,115.697529" id="Fill-1154" fill="#13A2A4"></path>
                        <path d="M66.1632,111.580253 C64.9472,111.580253 63.96,110.019299 63.96,108.092471 C63.96,106.168839 64.9472,104.603092 66.1632,104.603092 C67.3808,104.603092 68.3664,106.168839 68.3664,108.092471 C68.3664,110.019299 67.3808,111.580253 66.1632,111.580253" id="Fill-1160" fill="#13A2A4"></path>
                        <path d="M77.4496,108.092471 C76.4848,108.092471 75.704,107.312793 75.704,106.349379 C75.704,105.385966 76.4848,104.603092 77.4496,104.603092 C78.4144,104.603092 79.1936,105.385966 79.1936,106.349379 C79.1936,107.312793 78.4144,108.092471 77.4496,108.092471" id="Fill-1161" fill="#13A2A4"></path>
                        <path d="M52.3024,129.754103 C53.2352,130.679172 54.5664,132.003667 55.08,132.537299 C55.9072,133.395264 56.4656,133.452782 55.08,134.839586 C53.696,136.227989 53.1488,136.772805 52.5456,137.360759 C51.4736,138.404057 51.2352,138.503115 50.28,137.550885 C49.6816,136.954943 48.312,135.585713 47.3728,134.647862 C46.1552,133.633322 46.7888,133.305793 47.3728,132.719437 C47.7616,132.334391 49.352,130.74308 50.392,129.704575 C51.2368,128.969632 51.7376,129.191713 52.3024,129.754103" id="Fill-1162" fill="#13A2A4"></path>
                        <path d="M10.1984,58.9967126 L18.2768,58.9967126 C18.2768,58.9967126 18.2768,92.4685517 18.2768,98.7587011 C18.2768,103.594943 16.1056,124.91946 13.9776,124.91946 C11.848,124.91946 10.1984,103.369667 10.1984,98.9568161 C10.1984,93.0916552 10.1984,58.9967126 10.1984,58.9967126" id="Fill-1163" fill="#CCCCCC"></path>
                        <path d="M9.8624,41.5178621 C9.8624,39.0925517 11.8352,37.1225862 14.2656,37.1225862 C16.6976,37.1225862 18.6672,39.0925517 18.6672,41.5178621 L18.6672,52.1186092 C18.6672,54.5455172 16.6976,56.5138851 14.2656,56.5138851 C11.8352,56.5138851 9.8624,54.5455172 9.8624,52.1186092 L9.8624,41.5178621" id="Fill-1164" fill="#775B35"></path>
                        <path d="M0,55.9019655 C0,53.5581379 1.9024,51.660069 4.2512,51.660069 L24.28,51.660069 C26.6272,51.660069 28.5296,53.5581379 28.5296,55.9019655 C28.5296,58.2473908 26.6272,60.1454598 24.28,60.1454598 L4.2512,60.1454598 C1.9024,60.1454598 0,58.2473908 0,55.9019655" id="Fill-1165" fill="#EFA000"></path>
                        <path d="M9.3184,39.4392529 C9.3184,36.7103793 11.5312,34.5007586 14.2656,34.5007586 C16.9968,34.5007586 19.2112,36.7103793 19.2112,39.4392529 C19.2112,42.1665287 16.9968,44.3809425 14.2656,44.3809425 C11.5312,44.3809425 9.3184,42.1665287 9.3184,39.4392529" id="Fill-1166" fill="#EFA000"></path>
                    </g>
                </g>
            </g>
        </g>
    </g>
</svg>